<?xml version="1.0" encoding="UTF-8" standalone="no"?>
<!-- Created with Inkscape (http://www.inkscape.org/) -->

<svg
   width="128"
   height="128"
   viewBox="0 0 33.866669 33.866666"
   version="1.1"
   id="svg5"
   inkscape:version="1.1.2 (0a00cf5339, 2022-02-04)"
   sodipodi:docname="animation-workbench-debug.svg"
   inkscape:export-filename="C:\Users\User\OneDrive\Documents\Kartoza\Animation workbench\icon\film.png"
   inkscape:export-xdpi="31.9578"
   inkscape:export-ydpi="31.9578"
   xmlns:inkscape="http://www.inkscape.org/namespaces/inkscape"
   xmlns:sodipodi="http://sodipodi.sourceforge.net/DTD/sodipodi-0.dtd"
   xmlns="http://www.w3.org/2000/svg"
   xmlns:svg="http://www.w3.org/2000/svg">
  <sodipodi:namedview
     id="namedview7"
     pagecolor="#ffffff"
     bordercolor="#666666"
     borderopacity="1.0"
     inkscape:pageshadow="2"
     inkscape:pageopacity="0.0"
     inkscape:pagecheckerboard="0"
     inkscape:document-units="mm"
     showgrid="false"
     inkscape:zoom="2.8284271"
     inkscape:cx="67.528698"
     inkscape:cy="8.3085048"
     inkscape:window-width="2560"
     inkscape:window-height="995"
     inkscape:window-x="0"
     inkscape:window-y="0"
     inkscape:window-maximized="1"
     inkscape:current-layer="layer1"
     fit-margin-top="0"
     fit-margin-left="0"
     fit-margin-right="0"
     fit-margin-bottom="0"
     width="128px"
     units="px" />
  <defs
     id="defs2">
    <inkscape:path-effect
       effect="bspline"
       id="path-effect2477"
       is_visible="true"
       lpeversion="1"
       weight="33.333333"
       steps="2"
       helper_size="0"
       apply_no_weight="true"
       apply_with_weight="true"
       only_selected="false" />
    <inkscape:path-effect
       effect="bspline"
       id="path-effect2473"
       is_visible="true"
       lpeversion="1"
       weight="33.333333"
       steps="2"
       helper_size="0"
       apply_no_weight="true"
       apply_with_weight="true"
       only_selected="false" />
    <inkscape:path-effect
       effect="bspline"
       id="path-effect2469"
       is_visible="true"
       lpeversion="1"
       weight="33.333333"
       steps="2"
       helper_size="0"
       apply_no_weight="true"
       apply_with_weight="true"
       only_selected="false" />
    <inkscape:path-effect
       effect="bspline"
       id="path-effect2465"
       is_visible="true"
       lpeversion="1"
       weight="33.333333"
       steps="2"
       helper_size="0"
       apply_no_weight="true"
       apply_with_weight="true"
       only_selected="false" />
    <inkscape:path-effect
       effect="bspline"
       id="path-effect2461"
       is_visible="true"
       lpeversion="1"
       weight="33.333333"
       steps="2"
       helper_size="0"
       apply_no_weight="true"
       apply_with_weight="true"
       only_selected="false" />
    <inkscape:path-effect
       effect="bspline"
       id="path-effect2457"
       is_visible="true"
       lpeversion="1"
       weight="33.333333"
       steps="2"
       helper_size="0"
       apply_no_weight="true"
       apply_with_weight="true"
       only_selected="false" />
    <inkscape:path-effect
       effect="bspline"
       id="path-effect2453"
       is_visible="true"
       lpeversion="1"
       weight="33.333333"
       steps="2"
       helper_size="0"
       apply_no_weight="true"
       apply_with_weight="true"
       only_selected="false" />
    <inkscape:path-effect
       effect="bspline"
       id="path-effect2346"
       is_visible="true"
       lpeversion="1"
       weight="33.333333"
       steps="2"
       helper_size="0"
       apply_no_weight="true"
       apply_with_weight="true"
       only_selected="false" />
    <inkscape:path-effect
       effect="bspline"
       id="path-effect2303"
       is_visible="true"
       lpeversion="1"
       weight="33.333333"
       steps="2"
       helper_size="0"
       apply_no_weight="true"
       apply_with_weight="true"
       only_selected="false" />
    <inkscape:path-effect
       effect="bspline"
       id="path-effect2299"
       is_visible="true"
       lpeversion="1"
       weight="33.333333"
       steps="2"
       helper_size="0"
       apply_no_weight="true"
       apply_with_weight="true"
       only_selected="false" />
    <inkscape:path-effect
       effect="bspline"
       id="path-effect2295"
       is_visible="true"
       lpeversion="1"
       weight="33.333333"
       steps="2"
       helper_size="0"
       apply_no_weight="true"
       apply_with_weight="true"
       only_selected="false" />
    <inkscape:path-effect
       effect="bspline"
       id="path-effect2232"
       is_visible="true"
       lpeversion="1"
       weight="33.333333"
       steps="2"
       helper_size="0"
       apply_no_weight="true"
       apply_with_weight="true"
       only_selected="false" />
    <inkscape:path-effect
       effect="bspline"
       id="path-effect2213"
       is_visible="true"
       lpeversion="1"
       weight="33.333333"
       steps="2"
       helper_size="0"
       apply_no_weight="true"
       apply_with_weight="true"
       only_selected="false" />
    <inkscape:path-effect
       effect="bspline"
       id="path-effect2172"
       is_visible="true"
       lpeversion="1"
       weight="33.333333"
       steps="2"
       helper_size="0"
       apply_no_weight="true"
       apply_with_weight="true"
       only_selected="false" />
    <inkscape:path-effect
       effect="bspline"
       id="path-effect2153"
       is_visible="true"
       lpeversion="1"
       weight="33.333333"
       steps="2"
       helper_size="0"
       apply_no_weight="true"
       apply_with_weight="true"
       only_selected="false" />
    <inkscape:path-effect
       effect="bspline"
       id="path-effect1866"
       is_visible="true"
       lpeversion="1"
       weight="33.333333"
       steps="2"
       helper_size="0"
       apply_no_weight="true"
       apply_with_weight="true"
       only_selected="false" />
    <inkscape:path-effect
       effect="bspline"
       id="path-effect1862"
       is_visible="true"
       lpeversion="1"
       weight="33.333333"
       steps="2"
       helper_size="0"
       apply_no_weight="true"
       apply_with_weight="true"
       only_selected="false" />
    <inkscape:path-effect
       effect="bspline"
       id="path-effect1858"
       is_visible="true"
       lpeversion="1"
       weight="33.333333"
       steps="2"
       helper_size="0"
       apply_no_weight="true"
       apply_with_weight="true"
       only_selected="false" />
    <inkscape:path-effect
       effect="bspline"
       id="path-effect3075"
       is_visible="true"
       lpeversion="1"
       weight="33.333333"
       steps="2"
       helper_size="0"
       apply_no_weight="true"
       apply_with_weight="true"
       only_selected="false" />
    <inkscape:path-effect
       effect="bspline"
       id="path-effect2879"
       is_visible="true"
       lpeversion="1"
       weight="33.333333"
       steps="2"
       helper_size="0"
       apply_no_weight="true"
       apply_with_weight="true"
       only_selected="false" />
    <inkscape:path-effect
       effect="bspline"
       id="path-effect2875"
       is_visible="true"
       lpeversion="1"
       weight="33.333333"
       steps="2"
       helper_size="0"
       apply_no_weight="true"
       apply_with_weight="true"
       only_selected="false" />
    <inkscape:path-effect
       effect="bspline"
       id="path-effect2871"
       is_visible="true"
       lpeversion="1"
       weight="33.333333"
       steps="2"
       helper_size="0"
       apply_no_weight="true"
       apply_with_weight="true"
       only_selected="false" />
    <inkscape:path-effect
       effect="bspline"
       id="path-effect2836"
       is_visible="true"
       lpeversion="1"
       weight="33.333333"
       steps="2"
       helper_size="0"
       apply_no_weight="true"
       apply_with_weight="true"
       only_selected="false" />
    <inkscape:path-effect
       effect="bspline"
       id="path-effect2832"
       is_visible="true"
       lpeversion="1"
       weight="33.333333"
       steps="2"
       helper_size="0"
       apply_no_weight="true"
       apply_with_weight="true"
       only_selected="false" />
    <inkscape:path-effect
       effect="bspline"
       id="path-effect2828"
       is_visible="true"
       lpeversion="1"
       weight="33.333333"
       steps="2"
       helper_size="0"
       apply_no_weight="true"
       apply_with_weight="true"
       only_selected="false" />
    <inkscape:path-effect
       effect="bspline"
       id="path-effect2793"
       is_visible="true"
       lpeversion="1"
       weight="33.333333"
       steps="2"
       helper_size="0"
       apply_no_weight="true"
       apply_with_weight="true"
       only_selected="false" />
    <inkscape:path-effect
       effect="bspline"
       id="path-effect2789"
       is_visible="true"
       lpeversion="1"
       weight="33.333333"
       steps="2"
       helper_size="0"
       apply_no_weight="true"
       apply_with_weight="true"
       only_selected="false" />
    <inkscape:path-effect
       effect="bspline"
       id="path-effect2785"
       is_visible="true"
       lpeversion="1"
       weight="33.333333"
       steps="2"
       helper_size="0"
       apply_no_weight="true"
       apply_with_weight="true"
       only_selected="false" />
    <inkscape:path-effect
       effect="bspline"
       id="path-effect2747"
       is_visible="true"
       lpeversion="1"
       weight="33.333333"
       steps="2"
       helper_size="0"
       apply_no_weight="true"
       apply_with_weight="true"
       only_selected="false" />
    <inkscape:path-effect
       effect="bspline"
       id="path-effect2743"
       is_visible="true"
       lpeversion="1"
       weight="33.333333"
       steps="2"
       helper_size="0"
       apply_no_weight="true"
       apply_with_weight="true"
       only_selected="false" />
    <inkscape:path-effect
       effect="bspline"
       id="path-effect2739"
       is_visible="true"
       lpeversion="1"
       weight="33.333333"
       steps="2"
       helper_size="0"
       apply_no_weight="true"
       apply_with_weight="true"
       only_selected="false" />
    <inkscape:path-effect
       effect="bspline"
       id="path-effect2704"
       is_visible="true"
       lpeversion="1"
       weight="33.333333"
       steps="2"
       helper_size="0"
       apply_no_weight="true"
       apply_with_weight="true"
       only_selected="false" />
    <inkscape:path-effect
       effect="bspline"
       id="path-effect2700"
       is_visible="true"
       lpeversion="1"
       weight="33.333333"
       steps="2"
       helper_size="0"
       apply_no_weight="true"
       apply_with_weight="true"
       only_selected="false" />
    <inkscape:path-effect
       effect="bspline"
       id="path-effect2696"
       is_visible="true"
       lpeversion="1"
       weight="33.333333"
       steps="2"
       helper_size="0"
       apply_no_weight="true"
       apply_with_weight="true"
       only_selected="false" />
    <inkscape:path-effect
       effect="bspline"
       id="path-effect2661"
       is_visible="true"
       lpeversion="1"
       weight="33.333333"
       steps="2"
       helper_size="0"
       apply_no_weight="true"
       apply_with_weight="true"
       only_selected="false" />
    <inkscape:path-effect
       effect="bspline"
       id="path-effect2657"
       is_visible="true"
       lpeversion="1"
       weight="33.333333"
       steps="2"
       helper_size="0"
       apply_no_weight="true"
       apply_with_weight="true"
       only_selected="false" />
    <inkscape:path-effect
       effect="bspline"
       id="path-effect2653"
       is_visible="true"
       lpeversion="1"
       weight="33.333333"
       steps="2"
       helper_size="0"
       apply_no_weight="true"
       apply_with_weight="true"
       only_selected="false" />
    <inkscape:path-effect
       effect="bspline"
       id="path-effect2590"
       is_visible="true"
       lpeversion="1"
       weight="33.333333"
       steps="2"
       helper_size="0"
       apply_no_weight="true"
       apply_with_weight="true"
       only_selected="false" />
    <inkscape:path-effect
       effect="bspline"
       id="path-effect2555"
       is_visible="true"
       lpeversion="1"
       weight="33.333333"
       steps="2"
       helper_size="0"
       apply_no_weight="true"
       apply_with_weight="true"
       only_selected="false" />
    <inkscape:path-effect
       effect="bspline"
       id="path-effect2440"
       is_visible="true"
       lpeversion="1"
       weight="33.333333"
       steps="2"
       helper_size="0"
       apply_no_weight="true"
       apply_with_weight="true"
       only_selected="false" />
    <inkscape:path-effect
       effect="bspline"
       id="path-effect2421"
       is_visible="true"
       lpeversion="1"
       weight="33.333333"
       steps="2"
       helper_size="0"
       apply_no_weight="true"
       apply_with_weight="true"
       only_selected="false" />
    <inkscape:path-effect
       effect="bspline"
       id="path-effect2402"
       is_visible="true"
       lpeversion="1"
       weight="33.333333"
       steps="2"
       helper_size="0"
       apply_no_weight="true"
       apply_with_weight="true"
       only_selected="false" />
    <inkscape:path-effect
       effect="bspline"
       id="path-effect2255"
       is_visible="true"
       lpeversion="1"
       weight="33.333333"
       steps="2"
       helper_size="0"
       apply_no_weight="true"
       apply_with_weight="true"
       only_selected="false" />
    <inkscape:path-effect
       effect="bspline"
       id="path-effect2006"
       is_visible="true"
       lpeversion="1"
       weight="33.333333"
       steps="2"
       helper_size="0"
       apply_no_weight="true"
       apply_with_weight="true"
       only_selected="false" />
    <inkscape:path-effect
       effect="bspline"
       id="path-effect1470"
       is_visible="true"
       lpeversion="1"
       weight="33.333333"
       steps="2"
       helper_size="0"
       apply_no_weight="true"
       apply_with_weight="true"
       only_selected="false" />
    <inkscape:path-effect
       effect="bspline"
       id="path-effect1224"
       is_visible="true"
       lpeversion="1"
       weight="33.333333"
       steps="2"
       helper_size="0"
       apply_no_weight="true"
       apply_with_weight="true"
       only_selected="false" />
    <inkscape:path-effect
       effect="bspline"
       id="path-effect975"
       is_visible="true"
       lpeversion="1"
       weight="33.333333"
       steps="2"
       helper_size="0"
       apply_no_weight="true"
       apply_with_weight="true"
       only_selected="false" />
    <inkscape:path-effect
       effect="bspline"
       id="path-effect905"
       is_visible="true"
       lpeversion="1"
       weight="33.333333"
       steps="2"
       helper_size="0"
       apply_no_weight="true"
       apply_with_weight="true"
       only_selected="false" />
  </defs>
  <g
     inkscape:label="Layer 1"
     inkscape:groupmode="layer"
     id="layer1"
     transform="translate(-58.695843,-83.186816)">
    <path
       style="fill:#000000;stroke:#000000;stroke-width:0.115537px;stroke-linecap:butt;stroke-linejoin:miter;stroke-opacity:1"
       d="m 60.003648,91.734612 c 0.026,4.185096 0.078,12.555118 0.104001,17.036068 0.026,4.48095 0.026,5.07276 0.286054,5.36859 0.260053,0.29584 0.780046,0.29584 5.51218,0.33811 4.732133,0.0423 13.676037,0.12682 18.486101,0.21138 4.810064,0.0846 5.48604,0.1691 5.823992,-0.33813 0.337953,-0.50723 0.337953,-1.60629 0.311951,-6.0873 -0.026,-4.48101 -0.078,-12.343622 -0.129994,-16.444097 -0.05199,-4.100474 -0.10399,-4.438654 -5.174103,-4.523279 -5.070113,-0.08462 -15.158003,0.08446 -20.202093,0.169012 -5.04409,0.08455 -5.04409,0.08455 -5.018089,4.269646 z"
       id="path973"
       inkscape:path-effect="#path-effect975"
       inkscape:original-d="m 59.977647,87.549517 c 0.0521,8.37019 0.104093,16.740213 0.156002,25.110133 9.1e-5,0.59198 9.1e-5,1.18379 0,1.77546 0.520107,1.4e-4 1.0401,1.4e-4 1.560015,0 8.944351,0.0847 17.888255,0.16923 26.832245,0.25364 0.67611,0.0848 1.3521,0.16923 2.02802,0.25365 9e-5,-1.099 9e-5,-2.19806 0,-3.2973 -0.0519,-7.86278 -0.10391,-15.725393 -0.15601,-23.588313 -0.0519,-0.33804 -0.1039,-0.67622 -0.156,-1.01455 -10.0882,0.16924 -20.176089,0.33833 -30.264272,0.50727 9.2e-5,1.5e-4 9.2e-5,1.5e-4 0,10e-6 z"
       sodipodi:nodetypes="ccccccccccc" />
    <path
       style="fill:#00ff00;stroke:#000000;stroke-width:0.0948664px;stroke-linecap:butt;stroke-linejoin:miter;stroke-opacity:1"
       d="m 72.785749,92.342167 c 0.735547,0 2.206528,0 3.410064,0 1.203536,0 2.139596,0 3.488987,0.01413 1.349391,0.01413 3.11201,0.0424 4.048037,0.751732 0.936027,0.709331 1.045522,2.099591 1.100267,3.481852 0.05474,1.382261 0.05474,2.756441 0.05474,4.175014 0,1.41857 0,2.88142 -0.05475,4.28584 -0.05475,1.40442 -0.164248,2.75036 -0.933128,3.50391 -0.76888,0.75355 -2.197201,0.91481 -5.364022,0.91481 -3.166822,1e-5 -8.071937,-0.16124 -9.609766,-0.22772 -1.53783,-0.0665 0.291668,-0.0382 0.29165,-0.0382 -1.7e-5,0 -1.829514,-0.0283 -2.765651,-0.75972 -0.936137,-0.73143 -0.978768,-2.16602 -0.966653,-3.57044 0.01212,-1.40443 0.07898,-2.77863 0.112415,-4.08636 0.03343,-1.307743 0.03343,-2.548943 0.02132,-3.931212 -0.01212,-1.382269 -0.03635,-2.905509 0.899806,-3.68132 0.936155,-0.77581 2.832509,-0.804076 3.914432,-0.818209 1.081923,-0.01413 1.349367,-0.01413 1.483037,-0.01413 0.13367,0 0.133665,0 0.869213,0 z"
       id="path2253-8"
       inkscape:path-effect="#path-effect2402"
       inkscape:original-d="m 72.050201,92.342167 c 1.471095,8e-5 2.942076,8e-5 4.412938,0 0.93621,8e-5 1.87227,8e-5 2.80823,0 1.76282,0.0284 3.52544,0.0566 5.28799,0.0848 0.10961,1.39039 0.2191,2.78065 0.32849,4.17086 1.2e-4,1.37432 1.2e-4,2.7485 0,4.122663 1.2e-4,1.46298 1.2e-4,2.92583 0,4.38863 -0.10939,1.34605 -0.21888,2.69199 -0.32849,4.03784 -1.42826,0.16133 -2.85658,0.32259 -4.28504,0.48376 -4.905196,-0.16118 -9.810311,-0.32243 -14.715647,-0.48376 1.829679,0.0283 3.659175,0.0567 5.488584,0.0849 -1.829444,-0.0282 -3.658939,-0.0566 -5.488584,-0.0849 -0.04251,-1.43455 -0.08515,-2.86914 -0.127893,-4.30382 0.06698,-1.37416 0.133847,-2.74836 0.200598,-4.12265 1.14e-4,-1.241193 1.14e-4,-2.482393 0,-3.723703 -0.02412,-1.52323 -0.04835,-3.04647 -0.0727,-4.56982 1.896546,-0.0282 3.792901,-0.0564 5.689173,-0.0848 0.267572,8e-5 0.535016,8e-5 0.802356,0 z" />
    <path
       style="fill:#ffffff;stroke:none;stroke-width:0.0474495px;stroke-linecap:butt;stroke-linejoin:miter;stroke-opacity:1"
       d="m 60.499521,92.660927 c 0.228809,0 0.616023,0 0.932836,0 0.316814,0 0.563217,0 0.918424,0.01344 0.355208,0.01343 0.819194,0.0403 1.065584,0.714428 0.24639,0.674128 0.27521,1.995388 0.289619,3.309057 0.01441,1.31367 0.01441,2.61966 0.01441,3.967833 0,1.34817 0,2.73842 -0.01441,4.07314 -0.01441,1.33472 -0.04323,2.61386 -0.24564,3.33002 -0.202408,0.71617 -0.578396,0.86942 -1.411993,0.86942 -0.833597,0 -2.124797,-0.15325 -2.529606,-0.21646 -0.40481,-0.0632 0.07677,-0.0364 0.07677,-0.0364 -4e-6,0 -0.481589,-0.0268 -0.728016,-0.72193 -0.246427,-0.6951 -0.25765,-2.05849 -0.254462,-3.39322 0.0032,-1.33473 0.02079,-2.64073 0.02959,-3.88357 0.0088,-1.242843 0.0088,-2.422443 0.0056,-3.736113 -0.0032,-1.31367 -0.0096,-2.76131 0.236863,-3.498624 0.246428,-0.737315 0.745611,-0.764181 1.030413,-0.777613 0.284802,-0.01343 0.355206,-0.01343 0.584014,-0.01343 z"
       id="path2253-8-8"
       inkscape:path-effect="#path-effect2213"
       inkscape:original-d="m 60.341086,92.660927 c 0.387244,8e-5 0.774458,8e-5 1.16164,0 0.246445,8e-5 0.492848,8e-5 0.739226,0 0.464035,0.0269 0.928019,0.0538 1.391981,0.0806 0.02886,1.32139 0.05767,2.64265 0.08646,3.96387 3.1e-5,1.30612 3.1e-5,2.61211 0,3.918073 3.1e-5,1.39038 3.1e-5,2.78063 0,4.17083 -0.02879,1.27924 -0.05762,2.55838 -0.08646,3.83746 -0.375967,0.15333 -0.751949,0.30659 -1.127972,0.45974 -1.291219,-0.15316 -2.582416,-0.30643 -3.873672,-0.45974 0.481635,0.027 0.963222,0.0537 1.444787,0.0805 -0.481573,-0.0268 -0.96316,-0.0536 -1.444787,-0.0805 -0.01129,-1.36336 -0.02242,-2.72675 -0.03367,-4.09023 0.01763,-1.30598 0.03523,-2.61198 0.0528,-3.91806 2.9e-5,-1.179603 2.9e-5,-2.359203 0,-3.538903 -0.0063,-1.44764 -0.01281,-2.89528 -0.01913,-4.34304 0.499237,-0.0268 0.998423,-0.0536 1.49759,-0.0806 0.07043,8e-5 0.140834,8e-5 0.211207,0 z"
       inkscape:transform-center-x="-1.420311"
       inkscape:transform-center-y="0.36074682" />
    <path
       style="fill:#ffffff;stroke:none;stroke-width:0.0545341px;stroke-linecap:butt;stroke-linejoin:miter;stroke-opacity:1"
       d="m 89.019664,92.731777 c 0.287235,0 0.773325,0 1.17104,0 0.397715,0 0.707045,0 1.152956,0.01414 0.44591,0.01413 1.028382,0.0424 1.337692,0.751728 0.30931,0.709327 0.345489,2.099588 0.363578,3.481852 0.01809,1.382265 0.01809,2.756455 0.01809,4.175018 0,1.41857 0,2.88142 -0.01809,4.28584 -0.01809,1.40443 -0.05427,2.75036 -0.308364,3.50392 -0.254093,0.75357 -0.726085,0.91482 -1.772561,0.91482 -1.046476,0 -2.667386,-0.16125 -3.175575,-0.22773 -0.508189,-0.0665 0.09639,-0.0382 0.09638,-0.0382 -5e-6,0 -0.60458,-0.0283 -0.913935,-0.75972 -0.309354,-0.73143 -0.323454,-2.16603 -0.319455,-3.57045 0.004,-1.40442 0.0261,-2.77861 0.03715,-4.08636 0.01105,-1.307743 0.01105,-2.548943 0.0071,-3.931213 -0.004,-1.38227 -0.012,-2.90551 0.297359,-3.681319 0.309358,-0.77581 0.936015,-0.804076 1.293533,-0.818208 0.357518,-0.01413 0.445918,-0.01413 0.733153,-0.01413 z"
       id="path2253-8-2"
       inkscape:path-effect="#path-effect2232"
       inkscape:original-d="m 88.820769,92.731777 c 0.48613,8e-5 0.97222,8e-5 1.45828,0 0.30937,8e-5 0.6187,8e-5 0.92799,0 0.58253,0.0283 1.165,0.0566 1.74744,0.0848 0.0362,1.39039 0.0724,2.78065 0.10854,4.17086 3e-5,1.37432 3e-5,2.74851 0,4.122663 3e-5,1.46298 3e-5,2.92583 0,4.38865 -0.0361,1.34603 -0.0723,2.69196 -0.10854,4.03783 -0.47198,0.16134 -0.94397,0.3226 -1.41601,0.48377 -1.62095,-0.16118 -3.24186,-0.32243 -4.86285,-0.48377 0.60462,0.0283 1.20919,0.0567 1.81372,0.0849 -0.60454,-0.0282 -1.20911,-0.0566 -1.81372,-0.0849 -0.0141,-1.43455 -0.0281,-2.86915 -0.0423,-4.30384 0.0221,-1.37415 0.0442,-2.74834 0.0663,-4.12264 4e-5,-1.241193 4e-5,-2.482393 0,-3.723703 -0.008,-1.52323 -0.016,-3.04647 -0.024,-4.56982 0.62672,-0.0282 1.25338,-0.0564 1.88001,-0.0848 0.0884,8e-5 0.1768,8e-5 0.26514,0 z" />
    <path
       style="fill:#ffffff;stroke:#000000;stroke-width:0.0156908px;stroke-linecap:butt;stroke-linejoin:miter;stroke-opacity:1"
       d="m 65.61858,88.481877 c 0.130908,0 0.392703,0 0.606901,0 0.214199,0 0.380792,0 0.620945,0.0022 0.240154,0.0022 0.553863,0.0066 0.72045,0.11559 0.166587,0.109039 0.186077,0.32274 0.195822,0.535203 0.0097,0.212464 0.0097,0.423694 0.0097,0.641744 0,0.21805 0,0.4429 -0.0097,0.658774 -0.0097,0.215873 -0.02923,0.422753 -0.166076,0.538594 -0.136841,0.11584 -0.391044,0.14064 -0.954657,0.140641 -0.563613,1e-6 -1.436594,-0.0248 -1.710289,-0.03503 -0.273694,-0.01023 0.05192,-0.0059 0.05191,-0.0059 -4e-6,0 -0.325613,-0.0043 -0.49222,-0.116754 -0.166606,-0.11242 -0.174195,-0.332931 -0.172041,-0.548809 0.0022,-0.215879 0.01405,-0.427105 0.02,-0.628114 0.0059,-0.20101 0.0059,-0.3918 0.0038,-0.604265 -0.0022,-0.212465 -0.0065,-0.446602 0.160119,-0.565862 0.166603,-0.11926 0.504112,-0.123627 0.69667,-0.12581 0.192557,-0.0022 0.240147,-0.0022 0.263935,-0.0022 0.02379,0 0.02383,0 0.154737,0 z"
       id="path2253-6-4"
       inkscape:path-effect="#path-effect2653"
       inkscape:original-d="m 65.487672,88.481877 c 0.261816,1e-5 0.523611,1e-5 0.785386,0 0.166622,1e-5 0.333215,1e-5 0.499793,0 0.313734,0.004 0.627434,0.009 0.941121,0.0131 0.01951,0.21371 0.03901,0.42741 0.05847,0.6411 2.1e-5,0.21124 2.1e-5,0.42247 0,0.63369 2.1e-5,0.22488 2.1e-5,0.44973 0,0.67458 -0.01946,0.2069 -0.03895,0.41378 -0.05847,0.62066 -0.254192,0.0248 -0.508395,0.0496 -0.762624,0.0744 -0.872997,-0.0248 -1.745978,-0.0496 -2.618997,-0.0744 0.325634,0.004 0.651235,0.009 0.976823,0.013 -0.325595,-0.004 -0.651196,-0.009 -0.976823,-0.013 -0.0075,-0.22051 -0.01511,-0.44102 -0.02277,-0.66155 0.01199,-0.21122 0.02381,-0.42245 0.0357,-0.63369 2e-5,-0.19078 2e-5,-0.38157 0,-0.57237 -0.0043,-0.23413 -0.0085,-0.46827 -0.01297,-0.70242 0.337535,-0.004 0.675036,-0.009 1.012524,-0.0131 0.04763,1e-5 0.09522,1e-5 0.142795,0 z" />
    <path
       style="fill:#ffffff;stroke:#000000;stroke-width:0.0156908px;stroke-linecap:butt;stroke-linejoin:miter;stroke-opacity:1"
       d="m 75.67825,88.533227 c 0.130909,0 0.392699,0 0.606899,0 0.2142,0 0.38079,0 0.620943,0.0022 0.240152,0.0022 0.553862,0.0065 0.720455,0.115526 0.166594,0.109027 0.186094,0.322727 0.195843,0.535192 0.0097,0.212465 0.0097,0.423695 0.0097,0.64174 0,0.218045 0,0.442905 -0.0098,0.658775 -0.0097,0.21587 -0.02925,0.422751 -0.166094,0.538589 -0.136845,0.115839 -0.391045,0.140639 -0.95466,0.14064 -0.563615,10e-7 -1.436596,-0.0248 -1.710291,-0.03503 -0.273694,-0.01023 0.05191,-0.0059 0.05191,-0.0059 -4e-6,0 -0.325613,-0.0043 -0.49222,-0.116754 -0.166606,-0.11242 -0.174196,-0.332931 -0.172041,-0.548804 0.0022,-0.215874 0.01405,-0.4271 0.02,-0.628109 0.0059,-0.20101 0.0059,-0.3918 0.0038,-0.60427 -0.0022,-0.21247 -0.0065,-0.446607 0.160119,-0.56585 0.166604,-0.119244 0.504113,-0.123577 0.69667,-0.125743 0.192557,-0.0022 0.240147,-0.0022 0.263935,-0.0022 0.02379,0 0.02383,0 0.154739,0 z"
       id="path2253-6-4-7"
       inkscape:path-effect="#path-effect2172"
       inkscape:original-d="m 75.54734,88.533227 c 0.261819,1e-5 0.523609,1e-5 0.785389,0 0.16662,1e-5 0.33321,1e-5 0.49979,0 0.31373,0.004 0.62743,0.009 0.94112,0.013 0.0195,0.21372 0.039,0.42742 0.0585,0.6411 2e-5,0.21125 2e-5,0.42248 0,0.6337 2e-5,0.22487 2e-5,0.44973 0,0.67457 -0.0195,0.2069 -0.0389,0.41379 -0.0585,0.62066 -0.25419,0.0248 -0.50839,0.0496 -0.76262,0.0744 -0.873,-0.0248 -1.745981,-0.0496 -2.619,-0.0744 0.325634,0.004 0.651235,0.009 0.976823,0.013 -0.325595,-0.004 -0.651196,-0.009 -0.976823,-0.013 -0.0075,-0.22051 -0.01511,-0.44102 -0.02277,-0.66154 0.01199,-0.21122 0.02381,-0.42245 0.0357,-0.63369 2e-5,-0.19078 2e-5,-0.38157 0,-0.57237 -0.0043,-0.23414 -0.0085,-0.46828 -0.01297,-0.70243 0.337535,-0.004 0.675036,-0.009 1.012524,-0.013 0.04763,1e-5 0.09522,1e-5 0.142795,0 z" />
    <path
       style="fill:#ffffff;stroke:#000000;stroke-width:0.0156908px;stroke-linecap:butt;stroke-linejoin:miter;stroke-opacity:1"
       d="m 85.855919,88.548217 c 0.13091,0 0.39271,0 0.606905,0 0.214195,0 0.380795,0 0.620948,0.0022 0.240152,0.0022 0.553862,0.0065 0.72045,0.115526 0.166589,0.109027 0.186089,0.322727 0.195838,0.535192 0.0097,0.212465 0.0097,0.423695 0.0097,0.641745 0,0.21805 0,0.4429 -0.0098,0.658775 -0.0098,0.215875 -0.02925,0.422746 -0.166094,0.538584 -0.136845,0.115839 -0.391045,0.140639 -0.95466,0.14064 -0.563615,10e-7 -1.436595,-0.0248 -1.710287,-0.03502 -0.273693,-0.01022 0.05192,-0.0058 0.05191,-0.0058 -4e-6,0 -0.325613,-0.0044 -0.492226,-0.116807 -0.166613,-0.112441 -0.174212,-0.332934 -0.172063,-0.548813 0.0022,-0.21588 0.01405,-0.427104 0.02,-0.628114 0.0059,-0.20101 0.0059,-0.3918 0.0038,-0.604262 -0.0022,-0.212462 -0.0065,-0.446596 0.160101,-0.565849 0.166601,-0.119253 0.504109,-0.123586 0.696652,-0.125752 0.192543,-0.0022 0.240143,-0.0022 0.263938,-0.0022 0.02379,0 0.02389,0 0.154805,0 z"
       id="path2253-6-4-3-8"
       inkscape:path-effect="#path-effect2299"
       inkscape:original-d="m 85.725009,88.548217 c 0.26182,2e-5 0.52362,2e-5 0.78539,0 0.16662,2e-5 0.33322,2e-5 0.49979,0 0.31374,0.004 0.62744,0.009 0.94112,0.013 0.0195,0.21372 0.039,0.42742 0.0585,0.6411 2e-5,0.21125 2e-5,0.42248 0,0.6337 2e-5,0.22488 2e-5,0.44973 0,0.67458 -0.0195,0.2069 -0.0389,0.41378 -0.0585,0.62065 -0.25419,0.0248 -0.50839,0.0496 -0.76262,0.0744 -0.873,-0.0248 -1.74598,-0.0496 -2.619,-0.0744 0.32564,0.004 0.65124,0.009 0.97683,0.0131 -0.3256,-0.004 -0.6512,-0.009 -0.97683,-0.0131 -0.008,-0.2205 -0.0151,-0.44101 -0.0228,-0.66154 0.012,-0.21122 0.0238,-0.42245 0.0357,-0.63369 2e-5,-0.19078 2e-5,-0.38157 0,-0.57237 -0.004,-0.23413 -0.008,-0.46827 -0.013,-0.70243 0.33754,-0.004 0.67504,-0.009 1.01253,-0.013 0.0476,2e-5 0.0952,2e-5 0.14279,0 z" />
    <path
       style="fill:#ffffff;stroke:#000000;stroke-width:0.0156908px;stroke-linecap:butt;stroke-linejoin:miter;stroke-opacity:1"
       d="m 65.589934,110.75039 c 0.130908,0 0.392704,0 0.606902,0 0.214199,0 0.380792,0 0.620951,0.002 0.240158,0.002 0.553834,0.007 0.720432,0.11611 0.166597,0.10917 0.186088,0.32288 0.195833,0.53535 0.0097,0.21246 0.0097,0.42369 0.0097,0.64174 0,0.21806 0,0.44289 -0.0097,0.65877 -0.0097,0.21588 -0.02923,0.42276 -0.16608,0.5386 -0.136846,0.11584 -0.391038,0.14064 -0.95465,0.14064 -0.563611,0 -1.436595,-0.0248 -1.710285,-0.0349 -0.273691,-0.0101 0.05189,-0.005 0.05189,-0.005 3e-6,0 -0.325576,-0.005 -0.492193,-0.11721 -0.166618,-0.11257 -0.174208,-0.33309 -0.172053,-0.54896 0.0022,-0.21588 0.01405,-0.4271 0.02001,-0.62811 0.0059,-0.20101 0.0059,-0.3918 0.0038,-0.60427 -0.0022,-0.21247 -0.0065,-0.44661 0.160123,-0.566 0.166608,-0.11938 0.504087,-0.12402 0.696655,-0.12633 0.192568,-0.002 0.240158,-0.002 0.263945,-0.002 0.02379,0 0.02383,0 0.154738,0 z"
       id="path2253-6-4-0"
       inkscape:path-effect="#path-effect2453"
       inkscape:original-d="m 65.459026,110.75039 c 0.261816,0 0.523612,0 0.785387,0 0.166622,0 0.333215,0 0.499793,0 0.313734,0.005 0.627434,0.008 0.94112,0.0139 0.01951,0.2137 0.039,0.42741 0.05847,0.6411 2.1e-5,0.21124 2.1e-5,0.42247 0,0.6337 2.1e-5,0.22488 2.1e-5,0.44971 0,0.67455 -0.01946,0.20692 -0.03895,0.4138 -0.05847,0.62068 -0.254192,0.0249 -0.508394,0.0496 -0.762623,0.0744 -0.872997,-0.0247 -1.745978,-0.0496 -2.618998,-0.0744 0.325634,0.005 0.651236,0.008 0.976824,0.0139 -0.325595,-0.005 -0.651197,-0.008 -0.976824,-0.0139 -0.0075,-0.22051 -0.01511,-0.44103 -0.02277,-0.66155 0.01199,-0.21122 0.02381,-0.42245 0.0357,-0.63368 1.9e-5,-0.19079 1.9e-5,-0.38158 0,-0.57238 -0.0043,-0.23414 -0.0085,-0.46828 -0.01297,-0.70242 0.337534,-0.005 0.675035,-0.008 1.012524,-0.0139 0.04763,0 0.09522,0 0.142794,0 z" />
    <path
       style="fill:#ffffff;stroke:#000000;stroke-width:0.0156908px;stroke-linecap:butt;stroke-linejoin:miter;stroke-opacity:1"
       d="m 75.649601,110.80175 c 0.130908,0 0.392708,0 0.606903,0 0.214195,0 0.380795,0 0.620953,0.002 0.240157,0.002 0.553833,0.007 0.720438,0.11612 0.166605,0.10917 0.186106,0.32288 0.195855,0.53534 0.0097,0.21246 0.0097,0.42369 0.0097,0.64175 0,0.21806 0,0.44289 -0.0098,0.65876 -0.0098,0.21588 -0.02925,0.42276 -0.166105,0.5386 -0.136854,0.11583 -0.391035,0.14063 -0.954654,0.14063 -0.56362,0 -1.436593,-0.0248 -1.710284,-0.0349 -0.273692,-0.0101 0.05189,-0.005 0.05189,-0.005 3e-6,0 -0.325576,-0.005 -0.492193,-0.1172 -0.166617,-0.11256 -0.174207,-0.33308 -0.172052,-0.54896 0.0022,-0.21589 0.01405,-0.42709 0.02,-0.6281 0.0059,-0.20101 0.0059,-0.3918 0.0038,-0.60426 -0.0022,-0.21247 -0.0065,-0.44662 0.160124,-0.56601 0.166608,-0.11939 0.504086,-0.12403 0.696654,-0.12634 0.192568,-0.002 0.240158,-0.002 0.263945,-0.002 0.02379,0 0.02383,0 0.154737,0 z"
       id="path2253-6-4-7-9"
       inkscape:path-effect="#path-effect2461"
       inkscape:original-d="m 75.518694,110.80175 c 0.261815,1e-5 0.523615,1e-5 0.785385,0 0.16662,1e-5 0.33322,1e-5 0.4998,0 0.31373,0.005 0.62743,0.008 0.94112,0.0139 0.0195,0.21371 0.039,0.42742 0.0585,0.6411 2e-5,0.21124 2e-5,0.42247 0,0.63371 2e-5,0.22488 2e-5,0.44971 0,0.67456 -0.0195,0.2069 -0.0389,0.41379 -0.0585,0.62065 -0.2542,0.0249 -0.5084,0.0495 -0.76263,0.0744 -0.873,-0.0248 -1.745976,-0.0495 -2.618996,-0.0744 0.325635,0.005 0.651236,0.008 0.976824,0.0139 -0.325595,-0.005 -0.651197,-0.008 -0.976824,-0.0139 -0.0075,-0.22049 -0.01511,-0.44101 -0.02277,-0.66154 0.01199,-0.21123 0.02381,-0.42244 0.0357,-0.63367 2e-5,-0.19079 2e-5,-0.38158 0,-0.57238 -0.0043,-0.23413 -0.0085,-0.46828 -0.01297,-0.70243 0.337535,-0.005 0.675035,-0.008 1.012524,-0.0139 0.04763,1e-5 0.09522,1e-5 0.142794,0 z" />
    <path
       style="fill:#ffffff;stroke:#000000;stroke-width:0.0156908px;stroke-linecap:butt;stroke-linejoin:miter;stroke-opacity:1"
       d="m 85.827279,110.81673 c 0.13091,0 0.3927,0 0.606895,0 0.214195,0 0.380795,0 0.620953,0.002 0.240157,0.002 0.553833,0.007 0.720439,0.11612 0.166605,0.10918 0.186105,0.32288 0.195854,0.53535 0.0097,0.21247 0.0097,0.4237 0.0097,0.64175 0,0.21805 0,0.44289 -0.0097,0.65876 -0.0097,0.21587 -0.02925,0.42276 -0.166095,0.5386 -0.136845,0.11585 -0.391055,0.14065 -0.954667,0.14065 -0.563611,0 -1.436598,-0.0248 -1.710285,-0.0349 -0.273688,-0.0101 0.0519,-0.005 0.0519,-0.005 2e-6,0 -0.325585,-0.005 -0.492204,-0.1172 -0.166619,-0.11257 -0.174219,-0.33309 -0.172068,-0.54897 0.0022,-0.21589 0.01405,-0.4271 0.02,-0.62811 0.0059,-0.20101 0.0059,-0.39179 0.0038,-0.60426 -0.0022,-0.21247 -0.0065,-0.44659 0.160101,-0.566 0.1666,-0.11941 0.504088,-0.12405 0.696686,-0.12636 0.192599,-0.002 0.240099,-0.002 0.263899,-0.002 0.0238,0 0.0239,0 0.15481,0 z"
       id="path2253-6-4-3-8-2"
       inkscape:path-effect="#path-effect2469"
       inkscape:original-d="m 85.696369,110.81673 c 0.26182,3e-5 0.52361,3e-5 0.78539,0 0.16661,3e-5 0.33321,3e-5 0.49979,0 0.31373,0.005 0.62743,0.008 0.94112,0.0139 0.0195,0.21372 0.039,0.42742 0.0585,0.6411 2e-5,0.21126 2e-5,0.42249 0,0.63371 2e-5,0.22488 2e-5,0.44972 0,0.67457 -0.0194,0.2069 -0.0389,0.41379 -0.0585,0.62067 -0.25419,0.0248 -0.5084,0.0496 -0.76263,0.0744 -0.87299,-0.0249 -1.74598,-0.0496 -2.61899,-0.0744 0.32563,0.005 0.65124,0.008 0.97682,0.0139 -0.32559,-0.005 -0.6512,-0.008 -0.97682,-0.0139 -0.007,-0.22052 -0.0151,-0.44102 -0.0228,-0.66154 0.012,-0.21124 0.0238,-0.42246 0.0357,-0.6337 2e-5,-0.19078 2e-5,-0.38156 0,-0.57238 -0.004,-0.23413 -0.008,-0.46825 -0.013,-0.70243 0.33753,-0.005 0.67504,-0.008 1.01252,-0.0139 0.0477,3e-5 0.0952,3e-5 0.1428,0 z" />
  </g>
</svg>
