<?xml version="1.0" encoding="UTF-8" standalone="no"?>
<!-- Created with Inkscape (http://www.inkscape.org/) -->

<svg
   width="128"
   height="128"
   viewBox="0 0 33.866669 33.866666"
   version="1.1"
   id="svg5"
   inkscape:version="1.1.1 (3bf5ae0d25, 2021-09-20)"
   sodipodi:docname="animation-workbench-main.svg"
   inkscape:export-filename="C:\Users\User\OneDrive\Documents\Kartoza\Animation workbench\icon\film.png"
   inkscape:export-xdpi="31.9578"
   inkscape:export-ydpi="31.9578"
   xmlns:inkscape="http://www.inkscape.org/namespaces/inkscape"
   xmlns:sodipodi="http://sodipodi.sourceforge.net/DTD/sodipodi-0.dtd"
   xmlns="http://www.w3.org/2000/svg"
   xmlns:svg="http://www.w3.org/2000/svg">
  <sodipodi:namedview
     id="namedview7"
     pagecolor="#ffffff"
     bordercolor="#666666"
     borderopacity="1.0"
     inkscape:pageshadow="2"
     inkscape:pageopacity="0.0"
     inkscape:pagecheckerboard="0"
     inkscape:document-units="mm"
     showgrid="false"
     inkscape:zoom="2.8284271"
     inkscape:cx="67.175144"
     inkscape:cy="8.4852813"
     inkscape:window-width="2560"
     inkscape:window-height="1002"
     inkscape:window-x="0"
     inkscape:window-y="0"
     inkscape:window-maximized="1"
     inkscape:current-layer="layer1"
     fit-margin-top="0"
     fit-margin-left="0"
     fit-margin-right="0"
     fit-margin-bottom="0"
     width="128px"
     units="px" />
  <defs
     id="defs2">
    <inkscape:path-effect
       effect="bspline"
       id="path-effect2477"
       is_visible="true"
       lpeversion="1"
       weight="33.333333"
       steps="2"
       helper_size="0"
       apply_no_weight="true"
       apply_with_weight="true"
       only_selected="false" />
    <inkscape:path-effect
       effect="bspline"
       id="path-effect2473"
       is_visible="true"
       lpeversion="1"
       weight="33.333333"
       steps="2"
       helper_size="0"
       apply_no_weight="true"
       apply_with_weight="true"
       only_selected="false" />
    <inkscape:path-effect
       effect="bspline"
       id="path-effect2469"
       is_visible="true"
       lpeversion="1"
       weight="33.333333"
       steps="2"
       helper_size="0"
       apply_no_weight="true"
       apply_with_weight="true"
       only_selected="false" />
    <inkscape:path-effect
       effect="bspline"
       id="path-effect2465"
       is_visible="true"
       lpeversion="1"
       weight="33.333333"
       steps="2"
       helper_size="0"
       apply_no_weight="true"
       apply_with_weight="true"
       only_selected="false" />
    <inkscape:path-effect
       effect="bspline"
       id="path-effect2461"
       is_visible="true"
       lpeversion="1"
       weight="33.333333"
       steps="2"
       helper_size="0"
       apply_no_weight="true"
       apply_with_weight="true"
       only_selected="false" />
    <inkscape:path-effect
       effect="bspline"
       id="path-effect2457"
       is_visible="true"
       lpeversion="1"
       weight="33.333333"
       steps="2"
       helper_size="0"
       apply_no_weight="true"
       apply_with_weight="true"
       only_selected="false" />
    <inkscape:path-effect
       effect="bspline"
       id="path-effect2453"
       is_visible="true"
       lpeversion="1"
       weight="33.333333"
       steps="2"
       helper_size="0"
       apply_no_weight="true"
       apply_with_weight="true"
       only_selected="false" />
    <inkscape:path-effect
       effect="bspline"
       id="path-effect2346"
       is_visible="true"
       lpeversion="1"
       weight="33.333333"
       steps="2"
       helper_size="0"
       apply_no_weight="true"
       apply_with_weight="true"
       only_selected="false" />
    <inkscape:path-effect
       effect="bspline"
       id="path-effect2303"
       is_visible="true"
       lpeversion="1"
       weight="33.333333"
       steps="2"
       helper_size="0"
       apply_no_weight="true"
       apply_with_weight="true"
       only_selected="false" />
    <inkscape:path-effect
       effect="bspline"
       id="path-effect2299"
       is_visible="true"
       lpeversion="1"
       weight="33.333333"
       steps="2"
       helper_size="0"
       apply_no_weight="true"
       apply_with_weight="true"
       only_selected="false" />
    <inkscape:path-effect
       effect="bspline"
       id="path-effect2295"
       is_visible="true"
       lpeversion="1"
       weight="33.333333"
       steps="2"
       helper_size="0"
       apply_no_weight="true"
       apply_with_weight="true"
       only_selected="false" />
    <inkscape:path-effect
       effect="bspline"
       id="path-effect2232"
       is_visible="true"
       lpeversion="1"
       weight="33.333333"
       steps="2"
       helper_size="0"
       apply_no_weight="true"
       apply_with_weight="true"
       only_selected="false" />
    <inkscape:path-effect
       effect="bspline"
       id="path-effect2213"
       is_visible="true"
       lpeversion="1"
       weight="33.333333"
       steps="2"
       helper_size="0"
       apply_no_weight="true"
       apply_with_weight="true"
       only_selected="false" />
    <inkscape:path-effect
       effect="bspline"
       id="path-effect2172"
       is_visible="true"
       lpeversion="1"
       weight="33.333333"
       steps="2"
       helper_size="0"
       apply_no_weight="true"
       apply_with_weight="true"
       only_selected="false" />
    <inkscape:path-effect
       effect="bspline"
       id="path-effect2153"
       is_visible="true"
       lpeversion="1"
       weight="33.333333"
       steps="2"
       helper_size="0"
       apply_no_weight="true"
       apply_with_weight="true"
       only_selected="false" />
    <inkscape:path-effect
       effect="bspline"
       id="path-effect1866"
       is_visible="true"
       lpeversion="1"
       weight="33.333333"
       steps="2"
       helper_size="0"
       apply_no_weight="true"
       apply_with_weight="true"
       only_selected="false" />
    <inkscape:path-effect
       effect="bspline"
       id="path-effect1862"
       is_visible="true"
       lpeversion="1"
       weight="33.333333"
       steps="2"
       helper_size="0"
       apply_no_weight="true"
       apply_with_weight="true"
       only_selected="false" />
    <inkscape:path-effect
       effect="bspline"
       id="path-effect1858"
       is_visible="true"
       lpeversion="1"
       weight="33.333333"
       steps="2"
       helper_size="0"
       apply_no_weight="true"
       apply_with_weight="true"
       only_selected="false" />
    <inkscape:path-effect
       effect="bspline"
       id="path-effect3075"
       is_visible="true"
       lpeversion="1"
       weight="33.333333"
       steps="2"
       helper_size="0"
       apply_no_weight="true"
       apply_with_weight="true"
       only_selected="false" />
    <inkscape:path-effect
       effect="bspline"
       id="path-effect2879"
       is_visible="true"
       lpeversion="1"
       weight="33.333333"
       steps="2"
       helper_size="0"
       apply_no_weight="true"
       apply_with_weight="true"
       only_selected="false" />
    <inkscape:path-effect
       effect="bspline"
       id="path-effect2875"
       is_visible="true"
       lpeversion="1"
       weight="33.333333"
       steps="2"
       helper_size="0"
       apply_no_weight="true"
       apply_with_weight="true"
       only_selected="false" />
    <inkscape:path-effect
       effect="bspline"
       id="path-effect2871"
       is_visible="true"
       lpeversion="1"
       weight="33.333333"
       steps="2"
       helper_size="0"
       apply_no_weight="true"
       apply_with_weight="true"
       only_selected="false" />
    <inkscape:path-effect
       effect="bspline"
       id="path-effect2836"
       is_visible="true"
       lpeversion="1"
       weight="33.333333"
       steps="2"
       helper_size="0"
       apply_no_weight="true"
       apply_with_weight="true"
       only_selected="false" />
    <inkscape:path-effect
       effect="bspline"
       id="path-effect2832"
       is_visible="true"
       lpeversion="1"
       weight="33.333333"
       steps="2"
       helper_size="0"
       apply_no_weight="true"
       apply_with_weight="true"
       only_selected="false" />
    <inkscape:path-effect
       effect="bspline"
       id="path-effect2828"
       is_visible="true"
       lpeversion="1"
       weight="33.333333"
       steps="2"
       helper_size="0"
       apply_no_weight="true"
       apply_with_weight="true"
       only_selected="false" />
    <inkscape:path-effect
       effect="bspline"
       id="path-effect2793"
       is_visible="true"
       lpeversion="1"
       weight="33.333333"
       steps="2"
       helper_size="0"
       apply_no_weight="true"
       apply_with_weight="true"
       only_selected="false" />
    <inkscape:path-effect
       effect="bspline"
       id="path-effect2789"
       is_visible="true"
       lpeversion="1"
       weight="33.333333"
       steps="2"
       helper_size="0"
       apply_no_weight="true"
       apply_with_weight="true"
       only_selected="false" />
    <inkscape:path-effect
       effect="bspline"
       id="path-effect2785"
       is_visible="true"
       lpeversion="1"
       weight="33.333333"
       steps="2"
       helper_size="0"
       apply_no_weight="true"
       apply_with_weight="true"
       only_selected="false" />
    <inkscape:path-effect
       effect="bspline"
       id="path-effect2747"
       is_visible="true"
       lpeversion="1"
       weight="33.333333"
       steps="2"
       helper_size="0"
       apply_no_weight="true"
       apply_with_weight="true"
       only_selected="false" />
    <inkscape:path-effect
       effect="bspline"
       id="path-effect2743"
       is_visible="true"
       lpeversion="1"
       weight="33.333333"
       steps="2"
       helper_size="0"
       apply_no_weight="true"
       apply_with_weight="true"
       only_selected="false" />
    <inkscape:path-effect
       effect="bspline"
       id="path-effect2739"
       is_visible="true"
       lpeversion="1"
       weight="33.333333"
       steps="2"
       helper_size="0"
       apply_no_weight="true"
       apply_with_weight="true"
       only_selected="false" />
    <inkscape:path-effect
       effect="bspline"
       id="path-effect2704"
       is_visible="true"
       lpeversion="1"
       weight="33.333333"
       steps="2"
       helper_size="0"
       apply_no_weight="true"
       apply_with_weight="true"
       only_selected="false" />
    <inkscape:path-effect
       effect="bspline"
       id="path-effect2700"
       is_visible="true"
       lpeversion="1"
       weight="33.333333"
       steps="2"
       helper_size="0"
       apply_no_weight="true"
       apply_with_weight="true"
       only_selected="false" />
    <inkscape:path-effect
       effect="bspline"
       id="path-effect2696"
       is_visible="true"
       lpeversion="1"
       weight="33.333333"
       steps="2"
       helper_size="0"
       apply_no_weight="true"
       apply_with_weight="true"
       only_selected="false" />
    <inkscape:path-effect
       effect="bspline"
       id="path-effect2661"
       is_visible="true"
       lpeversion="1"
       weight="33.333333"
       steps="2"
       helper_size="0"
       apply_no_weight="true"
       apply_with_weight="true"
       only_selected="false" />
    <inkscape:path-effect
       effect="bspline"
       id="path-effect2657"
       is_visible="true"
       lpeversion="1"
       weight="33.333333"
       steps="2"
       helper_size="0"
       apply_no_weight="true"
       apply_with_weight="true"
       only_selected="false" />
    <inkscape:path-effect
       effect="bspline"
       id="path-effect2653"
       is_visible="true"
       lpeversion="1"
       weight="33.333333"
       steps="2"
       helper_size="0"
       apply_no_weight="true"
       apply_with_weight="true"
       only_selected="false" />
    <inkscape:path-effect
       effect="bspline"
       id="path-effect2590"
       is_visible="true"
       lpeversion="1"
       weight="33.333333"
       steps="2"
       helper_size="0"
       apply_no_weight="true"
       apply_with_weight="true"
       only_selected="false" />
    <inkscape:path-effect
       effect="bspline"
       id="path-effect2555"
       is_visible="true"
       lpeversion="1"
       weight="33.333333"
       steps="2"
       helper_size="0"
       apply_no_weight="true"
       apply_with_weight="true"
       only_selected="false" />
    <inkscape:path-effect
       effect="bspline"
       id="path-effect2440"
       is_visible="true"
       lpeversion="1"
       weight="33.333333"
       steps="2"
       helper_size="0"
       apply_no_weight="true"
       apply_with_weight="true"
       only_selected="false" />
    <inkscape:path-effect
       effect="bspline"
       id="path-effect2421"
       is_visible="true"
       lpeversion="1"
       weight="33.333333"
       steps="2"
       helper_size="0"
       apply_no_weight="true"
       apply_with_weight="true"
       only_selected="false" />
    <inkscape:path-effect
       effect="bspline"
       id="path-effect2402"
       is_visible="true"
       lpeversion="1"
       weight="33.333333"
       steps="2"
       helper_size="0"
       apply_no_weight="true"
       apply_with_weight="true"
       only_selected="false" />
    <inkscape:path-effect
       effect="bspline"
       id="path-effect2255"
       is_visible="true"
       lpeversion="1"
       weight="33.333333"
       steps="2"
       helper_size="0"
       apply_no_weight="true"
       apply_with_weight="true"
       only_selected="false" />
    <inkscape:path-effect
       effect="bspline"
       id="path-effect2006"
       is_visible="true"
       lpeversion="1"
       weight="33.333333"
       steps="2"
       helper_size="0"
       apply_no_weight="true"
       apply_with_weight="true"
       only_selected="false" />
    <inkscape:path-effect
       effect="bspline"
       id="path-effect1470"
       is_visible="true"
       lpeversion="1"
       weight="33.333333"
       steps="2"
       helper_size="0"
       apply_no_weight="true"
       apply_with_weight="true"
       only_selected="false" />
    <inkscape:path-effect
       effect="bspline"
       id="path-effect1224"
       is_visible="true"
       lpeversion="1"
       weight="33.333333"
       steps="2"
       helper_size="0"
       apply_no_weight="true"
       apply_with_weight="true"
       only_selected="false" />
    <inkscape:path-effect
       effect="bspline"
       id="path-effect975"
       is_visible="true"
       lpeversion="1"
       weight="33.333333"
       steps="2"
       helper_size="0"
       apply_no_weight="true"
       apply_with_weight="true"
       only_selected="false" />
    <inkscape:path-effect
       effect="bspline"
       id="path-effect905"
       is_visible="true"
       lpeversion="1"
       weight="33.333333"
       steps="2"
       helper_size="0"
       apply_no_weight="true"
       apply_with_weight="true"
       only_selected="false" />
  </defs>
  <g
     inkscape:label="Layer 1"
     inkscape:groupmode="layer"
     id="layer1"
     transform="translate(-58.695843,-83.186816)">
    <path
       style="fill:#000000;stroke:#000000;stroke-width:0.115537px;stroke-linecap:butt;stroke-linejoin:miter;stroke-opacity:1"
       d="m 60.392361,90.703367 c 0.026,4.185096 0.078,12.555123 0.104001,17.036073 0.026,4.48095 0.026,5.07276 0.286053,5.3686 0.260054,0.29583 0.780047,0.29583 5.512181,0.3381 4.732133,0.0423 13.676037,0.12682 18.486101,0.21138 4.810064,0.0846 5.486044,0.1691 5.823993,-0.33813 0.337949,-0.50723 0.337949,-1.60629 0.311948,-6.0873 -0.026,-4.48101 -0.078,-12.343627 -0.129989,-16.4441 -0.05199,-4.100472 -0.103989,-4.438656 -5.174102,-4.523278 -5.070113,-0.08462 -15.158006,0.08447 -20.202097,0.169013 -5.04409,0.08455 -5.04409,0.08455 -5.018089,4.269642 z"
       id="path973"
       inkscape:path-effect="#path-effect975"
       inkscape:original-d="m 60.36636,86.518271 c 0.0521,8.370191 0.104093,16.740219 0.156002,25.110139 9.1e-5,0.59198 9.1e-5,1.18379 0,1.77546 0.520107,1.4e-4 1.0401,1.4e-4 1.560015,0 8.944351,0.0847 17.888255,0.16923 26.832243,0.25364 0.676112,0.0848 1.352106,0.16923 2.028019,0.25365 9.2e-5,-1.099 9.2e-5,-2.19806 0,-3.2973 -0.0519,-7.86278 -0.103911,-15.725398 -0.156003,-23.588315 -0.0519,-0.338039 -0.103909,-0.676221 -0.156,-1.014548 -10.0882,0.169242 -20.176093,0.338327 -30.264276,0.507274 9.2e-5,1.45e-4 9.2e-5,1.45e-4 0,0 z"
       sodipodi:nodetypes="ccccccccccc" />
    <path
       style="fill:#ffffff;stroke:#000000;stroke-width:0.0948664px;stroke-linecap:butt;stroke-linejoin:miter;stroke-opacity:1"
       d="m 73.174462,91.310925 c 0.735547,0 2.206528,0 3.410066,0 1.203539,0 2.139598,0 3.488986,0.01413 1.349388,0.01413 3.112012,0.04239 4.048036,0.75172 0.936024,0.70933 1.045518,2.099584 1.100263,3.481846 0.05474,1.382262 0.05474,2.756449 0.05474,4.175018 0,1.41857 0,2.88142 -0.05475,4.28584 -0.05475,1.40442 -0.164248,2.75036 -0.933127,3.50391 -0.768878,0.75355 -2.197196,0.9148 -5.364018,0.91481 -3.166823,1e-5 -8.071938,-0.16124 -9.609767,-0.22772 -1.53783,-0.0665 0.291668,-0.0382 0.29165,-0.0382 -1.7e-5,0 -1.829514,-0.0283 -2.765651,-0.75972 -0.936137,-0.73143 -0.978768,-2.16602 -0.966653,-3.57044 0.01211,-1.40443 0.07898,-2.77863 0.112415,-4.086365 0.03343,-1.30774 0.03343,-2.548942 0.02132,-3.931209 -0.01212,-1.382266 -0.03635,-2.905505 0.899806,-3.681314 0.936155,-0.775809 2.83251,-0.804069 3.914432,-0.818198 1.081923,-0.01413 1.349367,-0.01413 1.483037,-0.01413 0.13367,0 0.133665,0 0.869213,0 z"
       id="path2253-8"
       inkscape:path-effect="#path-effect2402"
       inkscape:original-d="m 72.438914,91.310925 c 1.471095,7.7e-5 2.942076,7.7e-5 4.41294,0 0.936213,7.7e-5 1.872272,7.7e-5 2.808232,0 1.762815,0.02835 3.525439,0.05661 5.287982,0.08478 0.109615,1.390392 0.219108,2.780646 0.32849,4.170857 1.19e-4,1.374322 1.19e-4,2.748509 0,4.122661 1.19e-4,1.462987 1.19e-4,2.925837 0,4.388637 -0.109382,1.34605 -0.218879,2.69199 -0.32849,4.03784 -1.428257,0.16133 -2.856574,0.32259 -4.28504,0.48376 -4.905192,-0.16118 -9.810307,-0.32243 -14.715643,-0.48376 1.829679,0.0283 3.659175,0.0567 5.488584,0.0849 -1.829444,-0.0282 -3.658939,-0.0566 -5.488584,-0.0849 -0.04251,-1.43455 -0.08515,-2.86914 -0.127893,-4.30382 0.06698,-1.37416 0.133847,-2.74836 0.200598,-4.122657 1.14e-4,-1.241188 1.14e-4,-2.48239 0,-3.723697 -0.02412,-1.523228 -0.04835,-3.046467 -0.0727,-4.569821 1.896546,-0.02817 3.792901,-0.05645 5.689173,-0.08478 0.267572,7.7e-5 0.535016,7.7e-5 0.802356,0 z" />
    <path
       style="fill:#ffffff;stroke:none;stroke-width:0.0474495px;stroke-linecap:butt;stroke-linejoin:miter;stroke-opacity:1"
       d="m 60.888235,91.62969 c 0.228808,0 0.616022,0 0.932836,0 0.316813,0 0.563216,0 0.918425,0.01343 0.355209,0.01343 0.819193,0.04029 1.065582,0.714415 0.24639,0.674125 0.27521,1.995385 0.289619,3.309052 0.01441,1.313667 0.01441,2.619656 0.01441,3.967829 0,1.348173 0,2.738423 -0.01441,4.073143 -0.01441,1.33472 -0.04323,2.61386 -0.24564,3.33002 -0.202408,0.71617 -0.578396,0.86942 -1.411993,0.86942 -0.833597,0 -2.124797,-0.15325 -2.529606,-0.21646 -0.40481,-0.0632 0.07677,-0.0364 0.07677,-0.0364 -4e-6,0 -0.481589,-0.0268 -0.728016,-0.72193 -0.246427,-0.6951 -0.25765,-2.05849 -0.254462,-3.39322 0.0032,-1.33473 0.02079,-2.64073 0.02959,-3.88357 0.0088,-1.242839 0.0088,-2.422444 0.0056,-3.736113 -0.0032,-1.31367 -0.0096,-2.761312 0.236863,-3.498621 0.246428,-0.737308 0.745614,-0.764167 1.030415,-0.777597 0.2848,-0.01343 0.355204,-0.01343 0.584013,-0.01343 z"
       id="path2253-8-8"
       inkscape:path-effect="#path-effect2213"
       inkscape:original-d="m 60.729799,91.62969 c 0.387244,7.3e-5 0.774458,7.3e-5 1.16164,0 0.246445,7.3e-5 0.492848,7.3e-5 0.739226,0 0.464035,0.02695 0.928019,0.0538 1.391981,0.08058 0.02886,1.32139 0.05767,2.64265 0.08646,3.963867 3.1e-5,1.306118 3.1e-5,2.612107 0,3.918065 3.1e-5,1.390388 3.1e-5,2.780638 0,4.170838 -0.02879,1.27924 -0.05762,2.55838 -0.08646,3.83746 -0.375967,0.15333 -0.751949,0.30659 -1.127972,0.45974 -1.291219,-0.15316 -2.582416,-0.30643 -3.873672,-0.45974 0.481635,0.027 0.963222,0.0537 1.444787,0.0805 -0.481573,-0.0268 -0.96316,-0.0536 -1.444787,-0.0805 -0.01129,-1.36336 -0.02242,-2.72675 -0.03367,-4.09023 0.01763,-1.30598 0.03523,-2.61198 0.0528,-3.918068 2.9e-5,-1.179591 2.9e-5,-2.359196 0,-3.5389 -0.0063,-1.447635 -0.01281,-2.895277 -0.01913,-4.343032 0.499237,-0.02678 0.998423,-0.05365 1.49759,-0.08058 0.07043,7.3e-5 0.140834,7.3e-5 0.211207,0 z"
       inkscape:transform-center-x="-1.420311"
       inkscape:transform-center-y="0.36074682" />
    <path
       style="fill:#ffffff;stroke:none;stroke-width:0.0545341px;stroke-linecap:butt;stroke-linejoin:miter;stroke-opacity:1"
       d="m 89.452548,91.700536 c 0.243065,0 0.729156,0 1.126871,0 0.397714,0 0.70704,0 1.152953,0.01413 0.445913,0.01413 1.028379,0.04239 1.33769,0.751717 0.30931,0.709325 0.34549,2.099579 0.363579,3.481845 0.01809,1.382266 0.01809,2.756454 0.01809,4.175022 0,1.41857 0,2.88142 -0.01809,4.28584 -0.01809,1.40443 -0.05427,2.75036 -0.308362,3.50392 -0.254091,0.75357 -0.726088,0.91482 -1.772561,0.91482 -1.046473,0 -2.667388,-0.16125 -3.175574,-0.22773 -0.508186,-0.0665 0.09638,-0.0382 0.09638,-0.0382 -4e-6,0 -0.604574,-0.0283 -0.913926,-0.75972 -0.309352,-0.73143 -0.323442,-2.16603 -0.31944,-3.57045 0.004,-1.40442 0.0261,-2.77861 0.03715,-4.08636 0.01105,-1.307743 0.01105,-2.548948 0.007,-3.931215 -0.004,-1.382267 -0.01202,-2.905506 0.297339,-3.681314 0.309354,-0.775808 0.936015,-0.804068 1.293541,-0.818197 0.357527,-0.01413 0.445904,-0.01413 0.490076,-0.01413 0.04417,0 0.04418,0 0.287247,0 z"
       id="path2253-8-2"
       inkscape:path-effect="#path-effect2232"
       inkscape:original-d="m 89.209483,91.700536 c 0.48613,7.5e-5 0.972221,7.5e-5 1.458276,0 0.309374,7.5e-5 0.6187,7.5e-5 0.927989,0 0.582533,0.02835 1.165,0.05659 1.74744,0.08478 0.03623,1.390392 0.0724,2.780646 0.108543,4.170856 3.6e-5,1.374323 3.6e-5,2.748511 0,4.122668 3.6e-5,1.46298 3.6e-5,2.92583 0,4.38865 -0.03614,1.34603 -0.07232,2.69196 -0.108543,4.03783 -0.471973,0.16134 -0.943968,0.3226 -1.41601,0.48377 -1.620942,-0.16118 -3.241858,-0.32243 -4.862848,-0.48377 0.604626,0.0283 1.209189,0.0567 1.813725,0.0849 -0.604545,-0.0282 -1.20911,-0.0566 -1.813725,-0.0849 -0.01408,-1.43455 -0.02812,-2.86915 -0.04227,-4.30384 0.02212,-1.37415 0.04423,-2.74834 0.06629,-4.12264 3.9e-5,-1.241192 3.9e-5,-2.482397 0,-3.723704 -0.008,-1.523227 -0.016,-3.046466 -0.02403,-4.56982 0.626721,-0.0282 1.253382,-0.05645 1.880012,-0.08478 0.08842,7.5e-5 0.176797,7.5e-5 0.265141,0 z" />
    <path
       style="fill:#ffffff;stroke:#000000;stroke-width:0.0156908px;stroke-linecap:butt;stroke-linejoin:miter;stroke-opacity:1"
       d="m 66.007293,87.450631 c 0.130908,0 0.392703,0 0.606901,0 0.214199,0 0.380792,0 0.620948,0.0022 0.240157,0.0022 0.553855,0.0065 0.720445,0.115559 0.16659,0.109034 0.186079,0.322733 0.195824,0.535198 0.0097,0.212466 0.0097,0.423695 0.0097,0.641743 0,0.218047 0,0.4429 -0.0097,0.658773 -0.0097,0.215872 -0.02924,0.422758 -0.166076,0.53859 -0.13684,0.115831 -0.391045,0.140621 -0.954657,0.140622 -0.563613,10e-7 -1.436594,-0.02479 -1.710286,-0.03501 -0.273692,-0.01022 0.05191,-0.0059 0.0519,-0.0059 -3e-6,0 -0.325602,-0.0044 -0.492211,-0.116776 -0.166609,-0.112427 -0.174199,-0.33294 -0.172044,-0.548817 0.0022,-0.215878 0.01405,-0.427102 0.02,-0.628112 0.0059,-0.201011 0.0059,-0.391797 0.0038,-0.604266 -0.0022,-0.21247 -0.0065,-0.446605 0.160122,-0.565858 0.166606,-0.119252 0.504105,-0.123602 0.696664,-0.125777 0.19256,-0.0022 0.24015,-0.0022 0.263938,-0.0022 0.02379,0 0.02383,0 0.154737,0 z"
       id="path2253-6-4"
       inkscape:path-effect="#path-effect2653"
       inkscape:original-d="m 65.876385,87.450631 c 0.261816,1e-5 0.523611,1e-5 0.785386,0 0.166622,1e-5 0.333215,1e-5 0.499793,0 0.313734,0.0044 0.627434,0.0086 0.941121,0.01305 0.01951,0.213716 0.03901,0.427414 0.05847,0.641101 2.1e-5,0.211247 2.1e-5,0.422476 0,0.633695 2.1e-5,0.224876 2.1e-5,0.449729 0,0.674578 -0.01946,0.206899 -0.03895,0.413785 -0.05847,0.620657 -0.254192,0.02478 -0.508395,0.04959 -0.762624,0.07437 -0.872997,-0.02478 -1.745978,-0.04957 -2.618997,-0.07437 0.325634,0.0044 0.651235,0.0086 0.976823,0.01305 -0.325595,-0.0044 -0.651196,-0.0086 -0.976823,-0.01305 -0.0075,-0.220506 -0.01511,-0.441018 -0.02277,-0.661543 0.01199,-0.211223 0.02381,-0.422451 0.0357,-0.633692 2e-5,-0.190781 2e-5,-0.381567 0,-0.57237 -0.0043,-0.234136 -0.0085,-0.468274 -0.01297,-0.702426 0.337535,-0.0044 0.675036,-0.0086 1.012524,-0.01305 0.04763,1e-5 0.09522,1e-5 0.142795,0 z" />
    <path
       style="fill:#ffffff;stroke:#000000;stroke-width:0.0156908px;stroke-linecap:butt;stroke-linejoin:miter;stroke-opacity:1"
       d="m 76.066961,87.501987 c 0.130908,0 0.392704,0 0.606902,0 0.214198,0 0.380791,0 0.620947,0.0022 0.240157,0.0022 0.553855,0.0065 0.720445,0.115558 0.16659,0.109034 0.18608,0.322734 0.195824,0.535199 0.0097,0.212466 0.0097,0.423693 0.0097,0.641742 0,0.218049 0,0.4429 -0.0097,0.658773 -0.0097,0.215872 -0.02923,0.422757 -0.166076,0.538589 -0.13684,0.115831 -0.391044,0.140621 -0.954657,0.140622 -0.563612,10e-7 -1.436593,-0.02479 -1.710285,-0.03501 -0.273692,-0.01022 0.05191,-0.0059 0.0519,-0.0059 -3e-6,0 -0.325602,-0.0044 -0.492211,-0.116776 -0.166609,-0.112427 -0.174199,-0.332938 -0.172044,-0.548816 0.0022,-0.215878 0.01405,-0.427103 0.02,-0.628113 0.0059,-0.20101 0.0059,-0.391795 0.0038,-0.604264 -0.0022,-0.21247 -0.0065,-0.446605 0.160122,-0.565858 0.166606,-0.119252 0.504105,-0.123602 0.696664,-0.125777 0.19256,-0.0022 0.24015,-0.0022 0.263938,-0.0022 0.02379,0 0.02383,0 0.154737,0 z"
       id="path2253-6-4-7"
       inkscape:path-effect="#path-effect2172"
       inkscape:original-d="m 75.936053,87.501987 c 0.261816,1.3e-5 0.523612,1.3e-5 0.785387,0 0.166621,1.3e-5 0.333214,1.3e-5 0.499792,0 0.313734,0.0044 0.627434,0.0086 0.941121,0.01305 0.01951,0.213715 0.03901,0.427414 0.05847,0.6411 2.1e-5,0.211248 2.1e-5,0.422475 0,0.633695 2.1e-5,0.224878 2.1e-5,0.449729 0,0.674577 -0.01946,0.2069 -0.03895,0.413785 -0.05847,0.620657 -0.254192,0.02479 -0.508395,0.04959 -0.762624,0.07437 -0.872997,-0.02479 -1.745978,-0.04957 -2.618997,-0.07437 0.325634,0.0044 0.651235,0.0086 0.976823,0.01305 -0.325595,-0.0044 -0.651196,-0.0086 -0.976823,-0.01305 -0.0075,-0.220506 -0.01511,-0.441016 -0.02277,-0.661542 0.01199,-0.211223 0.02381,-0.422452 0.0357,-0.633692 2e-5,-0.190781 2e-5,-0.381566 0,-0.572368 -0.0043,-0.234137 -0.0085,-0.468275 -0.01297,-0.702427 0.337535,-0.0044 0.675036,-0.0086 1.012524,-0.01305 0.04763,1.3e-5 0.09522,1.3e-5 0.142795,0 z" />
    <path
       style="fill:#ffffff;stroke:#000000;stroke-width:0.0156908px;stroke-linecap:butt;stroke-linejoin:miter;stroke-opacity:1"
       d="m 86.244634,87.516979 c 0.130908,0 0.392704,0 0.606903,0 0.214198,0 0.380791,0 0.620947,0.0022 0.240157,0.0022 0.553855,0.0065 0.720444,0.115558 0.166589,0.109034 0.18608,0.322735 0.195824,0.5352 0.0097,0.212466 0.0097,0.423695 0.0097,0.641743 0,0.218048 0,0.442899 -0.0097,0.658771 -0.0097,0.215872 -0.02924,0.422758 -0.166077,0.53859 -0.13684,0.115831 -0.391043,0.140621 -0.954656,0.140622 -0.563612,10e-7 -1.436593,-0.02479 -1.710286,-0.03501 -0.273692,-0.01022 0.05191,-0.0059 0.0519,-0.0059 -3e-6,0 -0.325603,-0.0044 -0.492212,-0.116775 -0.166609,-0.112426 -0.174199,-0.332939 -0.172044,-0.548817 0.0022,-0.215878 0.01405,-0.427103 0.02,-0.628113 0.0059,-0.201011 0.0059,-0.391796 0.0038,-0.604264 -0.0022,-0.212469 -0.0065,-0.446604 0.160121,-0.565858 0.166606,-0.119253 0.504105,-0.123603 0.696665,-0.125778 0.19256,-0.0022 0.24015,-0.0022 0.263937,-0.0022 0.02379,0 0.02383,0 0.154738,0 z"
       id="path2253-6-4-3-8"
       inkscape:path-effect="#path-effect2299"
       inkscape:original-d="m 86.113726,87.516979 c 0.261816,1.3e-5 0.523612,1.3e-5 0.785387,0 0.166622,1.3e-5 0.333215,1.3e-5 0.499793,0 0.313734,0.0044 0.627434,0.0086 0.94112,0.01305 0.01951,0.213715 0.03901,0.427415 0.05847,0.641101 2.1e-5,0.211248 2.1e-5,0.422477 0,0.633696 2.1e-5,0.224877 2.1e-5,0.449728 0,0.674576 -0.01946,0.206899 -0.03895,0.413785 -0.05847,0.620657 -0.254192,0.02479 -0.508394,0.04959 -0.762623,0.07437 -0.872997,-0.02479 -1.745978,-0.04957 -2.618998,-0.07437 0.325634,0.0044 0.651236,0.0086 0.976824,0.01305 -0.325595,-0.0044 -0.651197,-0.0086 -0.976824,-0.01305 -0.0075,-0.220504 -0.01511,-0.441016 -0.02277,-0.661542 0.01199,-0.211223 0.02381,-0.422452 0.0357,-0.633691 2e-5,-0.190783 2e-5,-0.381568 0,-0.572369 -0.0043,-0.234136 -0.0085,-0.468274 -0.01297,-0.702428 0.337534,-0.0044 0.675035,-0.0086 1.012524,-0.01305 0.04763,1.3e-5 0.09522,1.3e-5 0.142794,0 z" />
    <path
       style="fill:#ffffff;stroke:#000000;stroke-width:0.0156908px;stroke-linecap:butt;stroke-linejoin:miter;stroke-opacity:1"
       d="m 65.978647,109.71915 c 0.130908,0 0.392704,0 0.606903,0 0.214198,0 0.380791,0 0.62095,0.002 0.240158,0.002 0.553834,0.007 0.720432,0.11611 0.166597,0.10917 0.186088,0.32288 0.195833,0.53535 0.0097,0.21246 0.0097,0.42369 0.0097,0.64175 0,0.21805 0,0.44288 -0.0097,0.65876 -0.0097,0.21588 -0.02923,0.42276 -0.16608,0.5386 -0.136846,0.11584 -0.391038,0.14064 -0.95465,0.14064 -0.563611,0 -1.436595,-0.0248 -1.710285,-0.0349 -0.273691,-0.0101 0.05189,-0.005 0.05189,-0.005 3e-6,0 -0.325576,-0.005 -0.492193,-0.11721 -0.166618,-0.11257 -0.174208,-0.33309 -0.172053,-0.54896 0.0022,-0.21588 0.01405,-0.4271 0.02,-0.62811 0.0059,-0.20101 0.0059,-0.3918 0.0038,-0.60427 -0.0022,-0.21247 -0.0065,-0.44661 0.160123,-0.566 0.166608,-0.11938 0.504087,-0.12402 0.696655,-0.12633 0.192568,-0.002 0.240158,-0.002 0.263945,-0.002 0.02379,0 0.02383,0 0.154738,0 z"
       id="path2253-6-4-0"
       inkscape:path-effect="#path-effect2453"
       inkscape:original-d="m 65.847739,109.71915 c 0.261816,0 0.523612,0 0.785387,0 0.166622,0 0.333215,0 0.499793,0 0.313734,0.005 0.627434,0.008 0.94112,0.0139 0.01951,0.2137 0.039,0.42741 0.05847,0.6411 2.1e-5,0.21124 2.1e-5,0.42247 0,0.6337 2.1e-5,0.22488 2.1e-5,0.44971 0,0.67455 -0.01946,0.20692 -0.03895,0.4138 -0.05847,0.62068 -0.254192,0.0249 -0.508394,0.0496 -0.762623,0.0744 -0.872997,-0.0247 -1.745978,-0.0496 -2.618998,-0.0744 0.325634,0.005 0.651236,0.008 0.976824,0.0139 -0.325595,-0.005 -0.651197,-0.008 -0.976824,-0.0139 -0.0075,-0.22051 -0.01511,-0.44103 -0.02277,-0.66155 0.01199,-0.21122 0.02381,-0.42245 0.0357,-0.63368 1.9e-5,-0.19079 1.9e-5,-0.38158 0,-0.57238 -0.0043,-0.23414 -0.0085,-0.46828 -0.01297,-0.70242 0.337534,-0.005 0.675035,-0.008 1.012524,-0.0139 0.04763,0 0.09522,0 0.142794,0 z" />
    <path
       style="fill:#ffffff;stroke:#000000;stroke-width:0.0156908px;stroke-linecap:butt;stroke-linejoin:miter;stroke-opacity:1"
       d="m 76.038315,109.77051 c 0.130908,0 0.392704,0 0.606902,0 0.214199,0 0.380792,0 0.620951,0.002 0.240158,0.002 0.553834,0.007 0.720432,0.11612 0.166598,0.10917 0.186089,0.32288 0.195833,0.53534 0.0097,0.21246 0.0097,0.42369 0.0097,0.64175 0,0.21806 0,0.44289 -0.0097,0.65876 -0.0097,0.21588 -0.02924,0.42277 -0.166081,0.5386 -0.136845,0.11583 -0.391028,0.14063 -0.954645,0.14063 -0.563618,0 -1.436596,-0.0248 -1.710287,-0.0349 -0.273692,-0.0101 0.05189,-0.005 0.05189,-0.005 3e-6,0 -0.325576,-0.005 -0.492193,-0.1172 -0.166617,-0.11256 -0.174207,-0.33308 -0.172052,-0.54896 0.0022,-0.21589 0.01405,-0.42709 0.02,-0.6281 0.0059,-0.20101 0.0059,-0.3918 0.0038,-0.60426 -0.0022,-0.21247 -0.0065,-0.44662 0.160124,-0.56601 0.166608,-0.11939 0.504086,-0.12403 0.696654,-0.12634 0.192568,-0.002 0.240158,-0.002 0.263945,-0.002 0.02379,0 0.02383,0 0.154738,0 z"
       id="path2253-6-4-7-9"
       inkscape:path-effect="#path-effect2461"
       inkscape:original-d="m 75.907407,109.77051 c 0.261816,1e-5 0.523612,1e-5 0.785387,0 0.166622,1e-5 0.333215,1e-5 0.499793,0 0.313734,0.005 0.627434,0.008 0.94112,0.0139 0.01951,0.21371 0.03901,0.42742 0.05847,0.6411 2.1e-5,0.21124 2.1e-5,0.42247 0,0.63371 2.1e-5,0.22488 2.1e-5,0.44971 0,0.67456 -0.01946,0.2069 -0.03895,0.41379 -0.05847,0.62065 -0.254192,0.0249 -0.508394,0.0495 -0.762623,0.0744 -0.872997,-0.0248 -1.745978,-0.0495 -2.618998,-0.0744 0.325635,0.005 0.651236,0.008 0.976824,0.0139 -0.325595,-0.005 -0.651197,-0.008 -0.976824,-0.0139 -0.0075,-0.22049 -0.01511,-0.44101 -0.02277,-0.66154 0.01199,-0.21123 0.02381,-0.42244 0.0357,-0.63367 2e-5,-0.19079 2e-5,-0.38158 0,-0.57238 -0.0043,-0.23413 -0.0085,-0.46828 -0.01297,-0.70243 0.337535,-0.005 0.675035,-0.008 1.012524,-0.0139 0.04763,1e-5 0.09522,1e-5 0.142794,0 z" />
    <path
       style="fill:#ffffff;stroke:#000000;stroke-width:0.0156908px;stroke-linecap:butt;stroke-linejoin:miter;stroke-opacity:1"
       d="m 86.215991,109.78549 c 0.130908,0 0.392699,0 0.606897,0 0.214198,0 0.380794,0 0.620951,0.002 0.240157,0.002 0.553837,0.007 0.720434,0.11612 0.166597,0.10918 0.186084,0.32288 0.195826,0.53535 0.0097,0.21247 0.0097,0.4237 0.0097,0.64175 0,0.21805 0,0.44289 -0.0097,0.65876 -0.0097,0.21587 -0.02923,0.42277 -0.16607,0.53861 -0.136839,0.11584 -0.391041,0.14064 -0.954655,0.14064 -0.563613,0 -1.436595,-0.0248 -1.710283,-0.0349 -0.273689,-0.0101 0.05189,-0.005 0.05189,-0.005 2e-6,0 -0.325579,-0.005 -0.492196,-0.11721 -0.166616,-0.11257 -0.174209,-0.33308 -0.172061,-0.54896 0.0021,-0.21589 0.01404,-0.4271 0.01998,-0.62811 0.0059,-0.20101 0.0059,-0.39179 0.0038,-0.60427 -0.0022,-0.21247 -0.0065,-0.44658 0.160115,-0.56599 0.166605,-0.11941 0.504087,-0.12405 0.696668,-0.12636 0.192582,-0.002 0.240132,-0.002 0.263925,-0.002 0.02379,0 0.02388,0 0.154792,0 z"
       id="path2253-6-4-3-8-2"
       inkscape:path-effect="#path-effect2469"
       inkscape:original-d="m 86.085082,109.78549 c 0.261817,3e-5 0.523608,3e-5 0.785389,0 0.166615,3e-5 0.333211,3e-5 0.499789,0 0.313731,0.005 0.627435,0.008 0.941121,0.0139 0.01952,0.21372 0.03903,0.42742 0.05846,0.6411 1.8e-5,0.21126 1.8e-5,0.42249 0,0.63371 1.8e-5,0.22488 1.8e-5,0.44972 0,0.67457 -0.01943,0.2069 -0.03894,0.41379 -0.05846,0.62067 -0.254193,0.0248 -0.508395,0.0496 -0.762624,0.0744 -0.872995,-0.0249 -1.74598,-0.0496 -2.618993,-0.0744 0.325631,0.005 0.651235,0.008 0.976821,0.0139 -0.325595,-0.005 -0.651199,-0.008 -0.976821,-0.0139 -0.0073,-0.22052 -0.01507,-0.44102 -0.02278,-0.66154 0.01198,-0.21124 0.02378,-0.42246 0.03567,-0.6337 1.9e-5,-0.19078 1.9e-5,-0.38156 0,-0.57238 -0.0045,-0.23413 -0.0082,-0.46825 -0.01298,-0.70243 0.337532,-0.005 0.675036,-0.008 1.012522,-0.0139 0.04766,3e-5 0.09521,3e-5 0.142796,0 z" />
    <path
       style="fill:#000000;stroke:#ffffff;stroke-width:0.142851px;stroke-linecap:butt;stroke-linejoin:miter;stroke-opacity:1"
       d="m 71.705859,96.212136 c 0,1.508906 0,4.095624 0.03899,5.604544 0.03899,1.50893 0.116934,1.94003 0.155891,2.32802 0.03896,0.388 0.03896,0.73288 0.428736,0.7759 0.38978,0.043 1.169232,-0.21564 2.767141,-1.07789 1.597909,-0.86224 4.014197,-2.328 5.456243,-3.10401 1.442047,-0.776016 1.909711,-0.862241 1.948723,-1.034625 0.03901,-0.172385 -0.350724,-0.431053 -1.870706,-1.250197 -1.519981,-0.819144 -4.170111,-2.198692 -5.690077,-2.931619 -1.519966,-0.732926 -1.909685,-0.819146 -2.260452,-0.991549 -0.350767,-0.172403 -0.662549,-0.431068 -0.818519,-0.34483 -0.15597,0.08624 -0.15597,0.517349 -0.15597,2.026256 z"
       id="path3073"
       inkscape:path-effect="#path-effect3075"
       inkscape:original-d="m 71.705859,95.134189 c 1.37e-4,2.586853 1.37e-4,5.173571 0,7.760111 0.07809,0.43129 0.156025,0.86239 0.233838,1.29335 1.4e-4,0.34505 1.4e-4,0.68993 0,1.03467 0.779618,-0.25852 1.559071,-0.51718 2.338395,-0.776 2.416532,-1.46569 4.832827,-2.93144 7.249034,-4.39739 0.467826,-0.086 0.935495,-0.172202 1.403039,-0.258682 -0.389603,-0.25851 -0.77933,-0.51719 -1.1692,-0.775998 -2.650098,-1.379461 -5.300232,-2.759001 -7.950552,-4.138728 -0.389601,-0.08609 -0.779324,-0.172291 -1.169193,-0.258668 -0.311658,-0.258524 -0.623438,-0.517192 -0.935361,-0.776009 1.37e-4,0.431274 1.37e-4,0.862384 0,1.293344 z" />
  </g>
</svg>
