<?xml version="1.0" encoding="UTF-8" standalone="no"?>
<!-- Created with Inkscape (http://www.inkscape.org/) -->

<svg
   width="254.5mm"
   height="22mm"
   viewBox="0 0 254.5 22"
   version="1.1"
   id="svg5"
   inkscape:version="1.1.2 (0a00cf5339, 2022-02-04)"
   sodipodi:docname="animation-workbench-footer.svg"
   inkscape:export-filename="/home/timlinux/dev/python/QGISAnimationWorkbench/templates/animation-workbench-footer.png"
   inkscape:export-xdpi="79.375"
   inkscape:export-ydpi="79.375"
   xmlns:inkscape="http://www.inkscape.org/namespaces/inkscape"
   xmlns:sodipodi="http://sodipodi.sourceforge.net/DTD/sodipodi-0.dtd"
   xmlns="http://www.w3.org/2000/svg"
   xmlns:svg="http://www.w3.org/2000/svg">
  <sodipodi:namedview
     id="namedview7"
     pagecolor="#ffffff"
     bordercolor="#666666"
     borderopacity="1.0"
     inkscape:pageshadow="2"
     inkscape:pageopacity="0.0"
     inkscape:pagecheckerboard="0"
     inkscape:document-units="mm"
     showgrid="false"
     fit-margin-top="0"
     fit-margin-left="0"
     fit-margin-right="0"
     fit-margin-bottom="0"
     inkscape:zoom="5.5660494"
     inkscape:cx="762.92891"
     inkscape:cy="53.718531"
     inkscape:window-width="1920"
     inkscape:window-height="995"
     inkscape:window-x="0"
     inkscape:window-y="0"
     inkscape:window-maximized="1"
     inkscape:current-layer="layer1" />
  <defs
     id="defs2">
    <filter
       style="color-interpolation-filters:sRGB"
       inkscape:label="Drop Shadow"
       id="filter2614"
       x="-2.58281"
       y="-1.1436723"
       width="8.2695313"
       height="4.2189556">
      <feFlood
         flood-opacity="0.498039"
         flood-color="rgb(0,0,0)"
         result="flood"
         id="feFlood2604" />
      <feComposite
         in="flood"
         in2="SourceGraphic"
         operator="in"
         result="composite1"
         id="feComposite2606" />
      <feGaussianBlur
         in="composite1"
         stdDeviation="3"
         result="blur"
         id="feGaussianBlur2608" />
      <feOffset
         dx="6"
         dy="6"
         result="offset"
         id="feOffset2610" />
      <feComposite
         in="SourceGraphic"
         in2="offset"
         operator="over"
         result="composite2"
         id="feComposite2612" />
    </filter>
  </defs>
  <g
     inkscape:label="Layer 1"
     inkscape:groupmode="layer"
     id="layer1">
    <rect
       style="fill:#eaedec;fill-opacity:1;stroke:#f4fbf3;stroke-width:0;stroke-linecap:round;stroke-opacity:1"
       id="rect885"
       width="254.07928"
       height="21.916821"
       x="0.44727328"
       y="0.1163459"
       inkscape:export-filename="/home/timlinux/dev/python/QGISAnimationWorkbench/templates/animation-workbench-footer.png"
       inkscape:export-xdpi="79.375"
       inkscape:export-ydpi="79.375" />
    <ellipse
       style="fill:#ffffff;fill-opacity:1;stroke:#000000;stroke-width:2;stroke-miterlimit:4;stroke-dasharray:none;stroke-opacity:1;paint-order:markers fill stroke;filter:url(#filter2614)"
       id="path10257"
       cx="99.38176"
       cy="149.51093"
       rx="84.899773"
       ry="84.899765"
       transform="matrix(0.08515696,0,0,0.08515696,190.03276,-1.9569232)" />
    <path
       style="fill:#803300;stroke:#803300;stroke-width:0.333437px;stroke-linecap:butt;stroke-linejoin:miter;stroke-opacity:1;filter:url(#filter2614)"
       d="m 119.90279,79.704512 c -9.74534,0 -22.336474,9.806488 -22.916585,22.634748 -0.691426,-0.29944 -2.437411,-1.50251 -3.665419,-2.403773 0.554173,-10.716815 9.555674,-20.145045 18.574024,-24.654215 2.6262,-1.313104 5.4275,-1.765746 8.56196,-1.956567 -1.96191,1.310612 -1.46919,5.445141 -0.55398,6.379807 z"
       id="path3934"
       transform="matrix(0.08515696,0,0,0.08515696,190.03276,-1.9569232)" />
    <path
       style="fill:#d40000;stroke:#d40000;stroke-width:0.333437px;stroke-linecap:butt;stroke-linejoin:miter;stroke-opacity:1;filter:url(#filter2614)"
       d="m 50.164804,127.86914 c -4.866389,-8.94631 2.921678,-24.61699 17.171106,-21.79544 12.562463,2.48752 44.50106,1.77819 62.74436,-0.39362 13.13055,-1.56315 20.09439,12.75846 14.77286,20.10596 -8.46016,-1.71516 -11.90582,-3.52317 -19.76639,-0.30507 l 6.95553,5.30479 c 6.22584,-3.99788 10.70397,0.61157 12.60614,4.87947 2.34557,-4.0796 9.70528,-5.61102 14.7335,-3.16265 C 153.43951,96.373336 125.0529,78.839622 97.098072,103.9414 62.640377,80.569905 35.874973,100.15962 39.694897,136.04673 c 9.606279,-3.92568 24.288429,-2.51425 30.773439,3.97077 6.368695,-11.13226 22.301492,-4.50118 28.788051,1.98539 4.855733,-3.80972 12.907333,-9.14611 22.649883,-2.28095 0.97891,-1.30922 2.39429,-2.65265 2.39429,-2.65265 l -10.09129,-7.65092 c -17.847077,4.04241 -54.917679,3.09505 -64.044466,-1.54927 z"
       id="path1074"
       transform="matrix(0.08515696,0,0,0.08515696,190.03276,-1.9569232)" />
    <path
       style="fill:#d40000;stroke:#d40000;stroke-width:0.333437px;stroke-linecap:butt;stroke-linejoin:miter;stroke-opacity:1;filter:url(#filter2614)"
       d="m 109.16545,123.66072 c 1.52791,-2.68851 2.06431,-3.20345 5.791,-4.03615 l 15.87386,11.86551 c -2.31211,1.02924 -4.22718,2.75441 -5.63064,4.56494 z"
       id="path2500"
       transform="matrix(0.08515696,0,0,0.08515696,190.03276,-1.9569232)" />
    <path
       style="fill:#803300;stroke:#803300;stroke-width:0.333437px;stroke-linecap:butt;stroke-linejoin:miter;stroke-opacity:1;filter:url(#filter2614)"
       d="m 121.51226,73.477981 c -2.20716,0.350446 -2.18713,5.733172 -0.48258,6.405194 1.21987,0.480932 2.68976,-6.755641 0.48258,-6.405194 z"
       id="path4509"
       transform="matrix(0.08515696,0,0,0.08515696,190.03276,-1.9569232)" />
    <path
       id="path5597"
       style="fill:#e9ddaf;stroke:#e9ddaf;stroke-width:0.333437px;stroke-linecap:butt;stroke-linejoin:miter;stroke-opacity:1;filter:url(#filter2614)"
       d="m 125.86791,138.12123 c -1.41868,1.32443 -2.22958,3.02475 -3.53127,4.37777 -8.02851,-5.75147 -16.92259,-3.52889 -22.583843,2.97814 -6.803092,-7.29945 -23.283193,-13.98665 -28.292,-1.73687 -3.787278,-4.40858 -6.306104,-5.27351 -9.678793,-5.95628 3.582901,6.1024 9.353995,15.95986 3.226266,22.0876 4.679679,2.3929 7.629369,12.19224 2.233765,14.89005 5.794402,5.57083 3.686439,13.69796 0,18.61321 3.711467,3.86372 8.573702,4.28867 14.642576,2.48189 -0.06107,-9.45635 -1.19596,-14.8427 18.174619,-19.11985 16.16459,3.17274 17.19533,9.89632 17.68614,18.99546 3.65991,0 8.83014,-0.40522 13.27691,-2.73001 -2.64223,-1.98167 -7.76321,-7.25588 -5.32057,-13.58689 -5.02976,0 -3.21359,-12.89623 0.85369,-13.58823 0,-4.69616 -0.17562,-10.62241 4.8394,-11.41566 -2.14234,-5.35585 -1.47911,-8.02834 0.92622,-11.75549 z m 7.15147,3.43848 c 0.97526,-2.06641 2.45906,-3.48748 5.14328,-4.67737 -1.31783,-0.9612 -5.35327,-4.07383 -6.17082,-4.5377 -1.80463,0.65777 -4.63001,3.19191 -5.47361,4.6517 z m -51.322981,0.39811 c 6.039838,-0.004 13.761399,3.57522 18.552651,9.97185 7.43925,-9.98411 14.95233,-9.31897 23.08009,-3.22626 -5.24289,5.53672 -6.36423,9.88352 -6.19436,21.68886 -5.23716,-0.87016 -12.44435,-0.45216 -17.399148,-2.2976 -6.976313,2.38276 -12.055369,1.26348 -20.895241,2.14019 0.01657,-8.49237 -0.3961,-14.4721 -6.014587,-21.40707 0.492384,-4.69719 4.172948,-6.86721 8.870595,-6.86997 z"
       transform="matrix(0.08515696,0,0,0.08515696,191.93276,-2.5388663)" />
    <path
       style="fill:#d40000;stroke:#d40000;stroke-width:0.333437px;stroke-linecap:butt;stroke-linejoin:miter;stroke-opacity:1;filter:url(#filter2614)"
       d="m 114.39494,196.25177 c -4.45149,1.44416 -7.93128,2.49952 -13.8506,-0.16558 -5.661112,2.69899 -9.022378,3.3572 -15.240175,0.0142 6.096542,5.19304 7.221099,9.86348 6.704447,25.04923 -9.217752,-0.95516 -10.78307,-13.28134 -10.248409,-23.30775 -3.29804,1.64527 -14.195451,1.66336 -18.4948,-5.70268 -3.70426,5.67727 -4.934713,7.61389 -12.89907,6.94354 0.264327,12.57847 25.756174,25.38552 43.650907,26.64827 2.028662,-1.22344 4.841314,-0.78174 6.14314,-3.19624 0.86852,2.31731 4.75029,2.06286 6.75342,3.02162 13.49407,-1.61996 34.22682,-10.4766 43.21804,-25.23278 -4.72348,0.0938 -4.84885,-0.12849 -8.06167,-3.22625 -3.1432,-0.0347 -6.53418,-1.65476 -5.37584,-6.34031 -3.58654,4.86193 -13.87701,6.50211 -18.96662,6.50211 1.28358,10.53526 2.9316,21.34923 -10.22198,23.69339 -1.18726,-14.55422 1.25191,-19.54072 6.88921,-24.70077 z"
       id="path8025"
       transform="matrix(0.08515696,0,0,0.08515696,190.03276,-1.9569232)" />
    <path
       d="M 60.786616,2.9665921 V 4.7813218 H 60.375537 V 2.9665921 Z m 0.914045,0 V 4.7813218 H 61.289583 V 2.9665921 Z"
       id="path37637"
       style="font-size:5.75874px;line-height:1.25;stroke-width:0.143968" />
    <path
       d="m 63.151528,5.5170231 v 1.7885714 h 0.783468 q 0.394151,0 0.582764,-0.2190755 0.191031,-0.2223452 0.191031,-0.6768451 0,-0.4577697 -0.191031,-0.6735754 -0.188613,-0.2190754 -0.582764,-0.2190754 z m 0,-2.007647 v 1.4714026 h 0.723014 q 0.35788,0 0.531985,-0.1798382 0.176522,-0.1831078 0.176522,-0.5558631 0,-0.3694856 -0.176522,-0.5525934 -0.174105,-0.1831079 -0.531985,-0.1831079 z m -0.488459,-0.542784 h 1.247745 q 0.558583,0 0.860847,0.3138992 0.302264,0.3138992 0.302264,0.8926508 0,0.4479603 -0.154759,0.7128128 -0.154759,0.2648525 -0.454605,0.3302482 0.360299,0.1046327 0.558584,0.4381509 0.200703,0.3302481 0.200703,0.8272552 0,0.6539566 -0.328863,1.0103631 -0.328864,0.3564063 -0.935809,0.3564063 h -1.296107 z"
       id="path37639"
       style="font-size:5.75874px;line-height:1.25;stroke-width:0.143968" />
    <path
       d="m 67.610522,4.7486241 q -0.07496,-0.058856 -0.164431,-0.085014 -0.08705,-0.029428 -0.193449,-0.029428 -0.377225,0 -0.580346,0.3335179 -0.200703,0.3302481 -0.200703,0.9515069 V 7.8483786 H 66.024242 V 4.1862213 h 0.447351 v 0.5689422 q 0.14025,-0.3335178 0.365134,-0.4937372 0.224885,-0.1634892 0.546493,-0.1634892 0.04595,0 0.10156,0.00981 0.05561,0.00654 0.123325,0.022888 z"
       id="path37641"
       style="font-size:5.75874px;line-height:1.25;stroke-width:0.143968" />
    <path
       d="m 68.077218,4.1862213 h 0.444932 v 3.6621573 h -0.444932 z m 0,-1.4256256 h 0.444932 v 0.7618596 h -0.444932 z"
       id="path37643"
       style="font-size:5.75874px;line-height:1.25;stroke-width:0.143968" />
    <path
       d="M 71.704383,5.6380051 V 7.8483786 H 71.25945 V 5.6576238 q 0,-0.5198956 -0.149923,-0.7782085 -0.149923,-0.2583129 -0.449768,-0.2583129 -0.360298,0 -0.568256,0.3106295 -0.207957,0.3106294 -0.207957,0.8468738 V 7.8483786 H 69.436195 V 4.1862213 h 0.447351 v 0.5689422 q 0.159595,-0.330248 0.374807,-0.4937372 0.217629,-0.1634892 0.500548,-0.1634892 0.466696,0 0.706088,0.3923741 0.239394,0.3891041 0.239394,1.1476939 z"
       id="path37645"
       style="font-size:5.75874px;line-height:1.25;stroke-width:0.143968" />
    <path
       d="m 74.373976,5.9747927 q 0,-0.6539566 -0.200702,-1.0136327 -0.198286,-0.3596763 -0.558584,-0.3596763 -0.357881,0 -0.558584,0.3596763 -0.198285,0.3596761 -0.198285,1.0136327 0,0.6506869 0.198285,1.0103631 0.200703,0.3596761 0.558584,0.3596761 0.360298,0 0.558584,-0.3596761 0.200702,-0.3596762 0.200702,-1.0103631 z m 0.444933,1.419086 q 0,0.935158 -0.3071,1.3896579 -0.3071,0.4577697 -0.940645,0.4577697 -0.234556,0 -0.442514,-0.049046 -0.207958,-0.045777 -0.403824,-0.1438704 V 8.4630978 q 0.195866,0.1438704 0.386897,0.2125359 0.19103,0.068666 0.389316,0.068666 0.437678,0 0.655308,-0.3106294 0.217629,-0.3073597 0.217629,-0.9318883 V 7.2042313 q -0.137832,0.3237085 -0.353044,0.4839279 -0.215212,0.1602194 -0.515057,0.1602194 -0.498131,0 -0.802812,-0.513356 -0.304683,-0.513356 -0.304683,-1.3602299 0,-0.8501436 0.304683,-1.3634996 0.304681,-0.513356 0.802812,-0.513356 0.299845,0 0.515057,0.1602194 0.215212,0.1602194 0.353044,0.483928 V 4.1862213 h 0.444933 z"
       id="path37647"
       style="font-size:5.75874px;line-height:1.25;stroke-width:0.143968" />
    <path
       d="m 78.436402,8.188436 q -0.188613,0.6539566 -0.367553,0.8534135 -0.17894,0.1994568 -0.478786,0.1994568 H 77.234601 V 8.7377596 h 0.261156 q 0.183776,0 0.285337,-0.1177121 0.10156,-0.1177123 0.224885,-0.5558632 l 0.0798,-0.2746618 -1.095404,-3.6033012 h 0.471532 l 0.846338,2.8643301 0.846339,-2.8643301 h 0.471531 z"
       id="path37649"
       style="font-size:5.75874px;line-height:1.25;stroke-width:0.143968" />
    <path
       d="m 81.289771,4.6080233 q -0.357881,0 -0.565838,0.3792948 -0.207958,0.3760252 -0.207958,1.0332516 0,0.6572265 0.20554,1.0365213 0.207957,0.3760251 0.568256,0.3760251 0.355462,0 0.563419,-0.3792949 0.207958,-0.3792948 0.207958,-1.0332515 0,-0.6506868 -0.207958,-1.0299818 -0.207957,-0.3825646 -0.563419,-0.3825646 z m 0,-0.5100862 q 0.580346,0 0.911627,0.5100862 0.331281,0.5100862 0.331281,1.4125464 0,0.8991904 -0.331281,1.4125464 -0.331281,0.5100861 -0.911627,0.5100861 -0.582765,0 -0.914046,-0.5100861 -0.328863,-0.513356 -0.328863,-1.4125464 0,-0.9024602 0.328863,-1.4125464 0.331281,-0.5100862 0.914046,-0.5100862 z"
       id="path37651"
       style="font-size:5.75874px;line-height:1.25;stroke-width:0.143968" />
    <path
       d="m 83.224259,6.4031343 v -2.216913 h 0.444932 v 2.1940245 q 0,0.5198956 0.149923,0.7814783 0.149923,0.2583129 0.449769,0.2583129 0.360298,0 0.568255,-0.3106295 0.210376,-0.3106293 0.210376,-0.8468738 V 4.1862213 h 0.444932 V 7.8483786 H 85.047514 V 7.2859758 q -0.162013,0.333518 -0.377225,0.4970071 -0.212793,0.1602193 -0.495713,0.1602193 -0.466695,0 -0.708506,-0.3923739 -0.241811,-0.392374 -0.241811,-1.147694 z m 1.119585,-2.3051972 z"
       id="path37653"
       style="font-size:5.75874px;line-height:1.25;stroke-width:0.143968" />
    <path
       d="m 87.97826,4.7486241 q -0.07499,-0.058856 -0.164425,-0.085014 -0.08705,-0.029428 -0.193448,-0.029428 -0.37723,0 -0.580353,0.3335179 -0.200698,0.3302481 -0.200698,0.9515069 V 7.8483786 H 86.391985 V 4.1862213 h 0.447351 v 0.5689422 q 0.140251,-0.3335178 0.365131,-0.4937372 0.224888,-0.1634892 0.546496,-0.1634892 0.04592,0 0.101562,0.00981 0.05564,0.00654 0.123318,0.022888 z"
       id="path37655"
       style="font-size:5.75874px;line-height:1.25;stroke-width:0.143968" />
    <path
       d="m 91.503866,3.4145524 q -0.53198,0 -0.846339,0.5362445 -0.311934,0.5362445 -0.311934,1.4615932 0,0.9220789 0.311934,1.4583233 0.314359,0.5362444 0.846339,0.5362444 0.531989,0 0.841506,-0.5362444 0.311933,-0.5362444 0.311933,-1.4583233 0,-0.9253487 -0.311933,-1.4615932 -0.309517,-0.5362445 -0.841506,-0.5362445 z m 0.684331,4.345542 0.643216,0.951507 H 92.241394 L 91.706988,7.9301232 q -0.0798,0.00654 -0.123318,0.00981 -0.04111,0.00327 -0.0798,0.00327 -0.761702,0 -1.218728,-0.6866543 -0.454601,-0.6899243 -0.454601,-1.8441578 0,-1.1575033 0.454601,-1.8441578 0.457026,-0.6899243 1.218728,-0.6899243 0.759293,0 1.213894,0.6899243 0.454601,0.6866545 0.454601,1.8441578 0,0.8501436 -0.253894,1.4550535 -0.251487,0.6049099 -0.73027,0.8926508 z"
       id="path37657"
       style="font-size:5.75874px;line-height:1.25;stroke-width:0.143968" />
    <path
       d="M 96.398125,7.1519147 V 5.8407317 H 95.600142 V 5.2979476 h 1.281599 v 2.0959311 q -0.282918,0.271392 -0.623867,0.4119927 -0.340957,0.1373308 -0.727853,0.1373308 -0.846339,0 -1.325122,-0.6670357 -0.476367,-0.6703056 -0.476367,-1.8637764 0,-1.1967408 0.476367,-1.8637765 0.478783,-0.6703056 1.325122,-0.6703056 0.353048,0 0.669814,0.1177121 0.319192,0.1177123 0.587603,0.3465971 V 4.0456206 Q 96.51661,3.7349912 96.211926,3.5780416 95.907242,3.4210919 95.571127,3.4210919 q -0.662557,0 -0.996256,0.5002769 -0.331283,0.5002769 -0.331283,1.4910213 0,0.9874744 0.331283,1.4877513 0.333699,0.5002769 0.996256,0.5002769 0.258736,0 0.461859,-0.058856 0.203123,-0.062126 0.365139,-0.1896474 z"
       id="path37659"
       style="font-size:5.75874px;line-height:1.25;stroke-width:0.143968" />
    <path
       d="m 97.774028,2.9665921 h 0.488457 v 4.8817865 h -0.488457 z"
       id="path37661"
       style="font-size:5.75874px;line-height:1.25;stroke-width:0.143968" />
    <path
       d="m 101.39877,3.1268115 v 0.6441473 q -0.27808,-0.179838 -0.52473,-0.2681222 -0.24665,-0.088284 -0.47637,-0.088284 -0.398985,0 -0.616615,0.2092661 -0.215205,0.2092661 -0.215205,0.5951006 0,0.3237085 0.142668,0.4904674 0.145084,0.1634893 0.546492,0.2648525 l 0.295,0.081745 q 0.5465,0.1406007 0.80524,0.4970071 0.26115,0.3531366 0.26115,0.9482372 0,0.7095429 -0.35304,1.0757587 -0.35062,0.3662156 -1.03011,0.3662156 -0.256322,0 -0.546498,-0.078475 Q 99.399001,7.786253 99.089475,7.6325729 V 6.952458 q 0.297435,0.225615 0.582769,0.3400574 0.285335,0.1144425 0.561006,0.1144425 0.41833,0 0.64563,-0.2223452 0.22731,-0.2223453 0.22731,-0.634338 0,-0.3596762 -0.16444,-0.5624027 -0.16201,-0.2027266 -0.5344,-0.3040898 l -0.29743,-0.078475 Q 99.563425,5.4581673 99.319196,5.1442681 99.074967,4.830369 99.074967,4.271236 q 0,-0.6474171 0.336116,-1.0201724 0.338541,-0.3727553 0.930977,-0.3727553 0.2539,0 0.51747,0.062126 0.26358,0.062126 0.53924,0.1863771 z"
       id="path37663"
       style="font-size:5.75874px;line-height:1.25;stroke-width:0.143968" />
    <path
       d="m 104.36338,7.299055 v 1.9422513 h -0.44735 v -5.055085 h 0.44735 v 0.5558632 q 0.14025,-0.3269784 0.35304,-0.483928 0.21521,-0.1602194 0.51264,-0.1602194 0.4933,0 0.80039,0.5297049 0.30953,0.5297049 0.30953,1.3929277 0,0.8632228 -0.30953,1.3929277 -0.30709,0.5297048 -0.80039,0.5297048 -0.29743,0 -0.51264,-0.1569495 -0.21279,-0.1602194 -0.35304,-0.4871977 z m 1.51374,-1.2784853 q 0,-0.663766 -0.20312,-1.039791 -0.20071,-0.379295 -0.55375,-0.379295 -0.35305,0 -0.55617,0.379295 -0.2007,0.376025 -0.2007,1.039791 0,0.663766 0.2007,1.0430609 0.20312,0.3760251 0.55617,0.3760251 0.35304,0 0.55375,-0.3760251 0.20312,-0.3792949 0.20312,-1.0430609 z"
       id="path37665"
       style="font-size:5.75874px;line-height:1.25;stroke-width:0.143968" />
    <path
       d="m 108.64585,4.7486241 q -0.075,-0.058856 -0.16444,-0.085014 -0.087,-0.029428 -0.19344,-0.029428 -0.37723,0 -0.58035,0.3335179 -0.2007,0.3302481 -0.2007,0.9515069 v 1.9291722 h -0.44735 V 4.1862213 h 0.44735 v 0.5689422 q 0.14025,-0.3335178 0.36513,-0.4937372 0.22488,-0.1634892 0.5465,-0.1634892 0.0459,0 0.10155,0.00981 0.0556,0.00654 0.12333,0.022888 z"
       id="path37667"
       style="font-size:5.75874px;line-height:1.25;stroke-width:0.143968" />
    <path
       d="m 110.05319,4.6080233 q -0.35788,0 -0.56584,0.3792948 -0.20795,0.3760252 -0.20795,1.0332516 0,0.6572265 0.20554,1.0365213 0.20795,0.3760251 0.56825,0.3760251 0.35546,0 0.56342,-0.3792949 0.20796,-0.3792948 0.20796,-1.0332515 0,-0.6506868 -0.20796,-1.0299818 -0.20796,-0.3825646 -0.56342,-0.3825646 z m 0,-0.5100862 q 0.58034,0 0.91163,0.5100862 0.33128,0.5100862 0.33128,1.4125464 0,0.8991904 -0.33128,1.4125464 -0.33129,0.5100861 -0.91163,0.5100861 -0.58276,0 -0.91404,-0.5100861 -0.32887,-0.513356 -0.32887,-1.4125464 0,-0.9024602 0.32887,-1.4125464 0.33128,-0.5100862 0.91404,-0.5100862 z"
       id="path37669"
       style="font-size:5.75874px;line-height:1.25;stroke-width:0.143968" />
    <path
       d="m 112.03362,4.1862213 h 0.44493 v 3.727553 q 0,0.6997335 -0.19829,1.0136328 -0.19586,0.3138992 -0.63354,0.3138992 h -0.16926 V 8.7312201 h 0.11848 q 0.25391,0 0.34579,-0.1602194 0.0919,-0.1569497 0.0919,-0.6572264 z m 0,-1.4256256 h 0.44493 v 0.7618596 h -0.44493 z"
       id="path37671"
       style="font-size:5.75874px;line-height:1.25;stroke-width:0.143968" />
    <path
       d="m 115.72607,5.8668899 v 0.2942805 h -2.04571 q 0.029,0.6212589 0.27566,0.9482371 0.24907,0.3237086 0.69158,0.3237086 0.25632,0 0.49571,-0.085014 0.24182,-0.085014 0.47879,-0.2550431 V 7.662001 q -0.2394,0.1373308 -0.49088,0.2092661 -0.25148,0.071935 -0.51022,0.071935 -0.64805,0 -1.0277,-0.5100862 -0.37722,-0.5100862 -0.37722,-1.3798485 0,-0.8991904 0.35787,-1.4256256 0.36031,-0.5297048 0.96967,-0.5297048 0.5465,0 0.86326,0.4773884 0.31919,0.4741186 0.31919,1.2915648 z m -0.44493,-0.1765683 q -0.005,-0.4937372 -0.20554,-0.7880178 -0.19828,-0.2942805 -0.52715,-0.2942805 -0.37239,0 -0.59727,0.2844712 -0.22247,0.2844712 -0.25631,0.8010968 z"
       id="path37673"
       style="font-size:5.75874px;line-height:1.25;stroke-width:0.143968" />
    <path
       d="m 118.40534,4.3268219 v 0.5624028 q -0.18861,-0.1406006 -0.37964,-0.2092661 -0.18861,-0.071936 -0.38206,-0.071936 -0.43284,0 -0.67224,0.3727554 -0.23939,0.3694854 -0.23939,1.039791 0,0.6703056 0.23939,1.043061 0.2394,0.3694854 0.67224,0.3694854 0.19345,0 0.38206,-0.068666 0.19103,-0.071935 0.37964,-0.2125359 v 0.5558632 q -0.18619,0.1177123 -0.38689,0.1765683 -0.19829,0.058856 -0.42317,0.058856 -0.61179,0 -0.97209,-0.5198954 -0.36029,-0.5198956 -0.36029,-1.4027371 0,-0.8959206 0.36271,-1.4092766 0.36514,-0.513356 0.99868,-0.513356 0.20554,0 0.40141,0.058856 0.19587,0.055586 0.37964,0.1700295 z"
       id="path37675"
       style="font-size:5.75874px;line-height:1.25;stroke-width:0.143968" />
    <path
       d="m 119.61924,3.1464302 v 1.0397911 h 0.91646 v 0.467579 h -0.91646 v 1.9880282 q 0,0.4479603 0.0895,0.5754819 0.0919,0.1275215 0.36997,0.1275215 h 0.45702 v 0.5035467 h -0.45702 q -0.51506,0 -0.71093,-0.2583129 -0.19586,-0.2615827 -0.19586,-0.9482372 V 4.6538003 h -0.32645 v -0.467579 h 0.32645 V 3.1464302 Z"
       id="path37677"
       style="font-size:5.75874px;line-height:1.25;stroke-width:0.143968" />
    <path
       d="m 122.84741,4.2941242 v 0.5689422 q -0.18861,-0.1307913 -0.39173,-0.196187 -0.20312,-0.065396 -0.42075,-0.065396 -0.33129,0 -0.49814,0.1373309 -0.16443,0.137331 -0.16443,0.4119927 0,0.2092661 0.11849,0.3302481 0.11849,0.1177122 0.47637,0.2256151 l 0.15234,0.045777 q 0.47395,0.1373308 0.67223,0.3891042 0.20071,0.2485035 0.20071,0.6964638 0,0.5100862 -0.29985,0.8076365 -0.29743,0.2975502 -0.81974,0.2975502 -0.21763,0 -0.4546,-0.058856 -0.23456,-0.055586 -0.49572,-0.1700287 V 7.0930586 q 0.24666,0.1732985 0.48604,0.2615827 0.2394,0.085014 0.47395,0.085014 0.31436,0 0.48363,-0.1438705 0.16926,-0.1471402 0.16926,-0.4119927 0,-0.2452338 -0.12332,-0.3760251 -0.1209,-0.1307913 -0.5344,-0.2517733 l -0.15476,-0.049047 q -0.41349,-0.1177121 -0.59727,-0.3596761 -0.18378,-0.2452337 -0.18378,-0.6703055 0,-0.5166258 0.27083,-0.7978272 0.27083,-0.2812014 0.76896,-0.2812014 0.24664,0 0.46427,0.049047 0.21763,0.049046 0.40141,0.1471406 z"
       id="path37679"
       style="font-size:5.75874px;line-height:1.25;stroke-width:0.143968" />
    <path
       d="m 125.71529,3.1464302 v 1.0397911 h 0.91646 v 0.467579 h -0.91646 v 1.9880282 q 0,0.4479603 0.0895,0.5754819 0.0919,0.1275215 0.36997,0.1275215 h 0.45702 v 0.5035467 h -0.45702 q -0.51505,0 -0.71093,-0.2583129 -0.19586,-0.2615827 -0.19586,-0.9482372 V 4.6538003 h -0.32644 v -0.467579 h 0.32644 V 3.1464302 Z"
       id="path37681"
       style="font-size:5.75874px;line-height:1.25;stroke-width:0.143968" />
    <path
       d="m 128.2664,4.6080233 q -0.35788,0 -0.56584,0.3792948 -0.20796,0.3760252 -0.20796,1.0332516 0,0.6572265 0.20554,1.0365213 0.20796,0.3760251 0.56826,0.3760251 0.35545,0 0.56342,-0.3792949 0.20795,-0.3792948 0.20795,-1.0332515 0,-0.6506868 -0.20795,-1.0299818 -0.20797,-0.3825646 -0.56342,-0.3825646 z m 0,-0.5100862 q 0.58034,0 0.91163,0.5100862 0.33128,0.5100862 0.33128,1.4125464 0,0.8991904 -0.33128,1.4125464 -0.33129,0.5100861 -0.91163,0.5100861 -0.58277,0 -0.91405,-0.5100861 -0.32886,-0.513356 -0.32886,-1.4125464 0,-0.9024602 0.32886,-1.4125464 0.33128,-0.5100862 0.91405,-0.5100862 z"
       id="path37683"
       style="font-size:5.75874px;line-height:1.25;stroke-width:0.143968" />
    <path
       d="m 131.82102,2.7605957 h 0.44493 v 5.0877829 h -0.44493 z"
       id="path37685"
       style="font-size:5.75874px;line-height:1.25;stroke-width:0.143968" />
    <path
       d="m 133.19692,4.1862213 h 0.44493 v 3.6621573 h -0.44493 z m 0,-1.4256256 h 0.44493 v 0.7618596 h -0.44493 z"
       id="path37687"
       style="font-size:5.75874px;line-height:1.25;stroke-width:0.143968" />
    <path
       d="m 135.94389,2.7605957 v 0.5002769 h -0.42559 q -0.23939,0 -0.3337,0.1307914 -0.0919,0.1307913 -0.0919,0.4708487 v 0.3237086 h 0.73269 v 0.467579 h -0.73269 v 3.1945783 h -0.44735 V 4.6538003 h -0.42558 v -0.467579 h 0.42558 V 3.9311782 q 0,-0.6114495 0.21038,-0.8893811 0.21038,-0.2812014 0.6674,-0.2812014 z"
       id="path37689"
       style="font-size:5.75874px;line-height:1.25;stroke-width:0.143968" />
    <path
       d="m 138.63284,5.8668899 v 0.2942805 h -2.04573 q 0.029,0.6212589 0.27567,0.9482371 0.24906,0.3237086 0.69158,0.3237086 0.25632,0 0.49571,-0.085014 0.24181,-0.085014 0.47879,-0.2550431 V 7.662001 q -0.2394,0.1373308 -0.49088,0.2092661 -0.25148,0.071935 -0.51022,0.071935 -0.64806,0 -1.02769,-0.5100862 -0.37723,-0.5100862 -0.37723,-1.3798485 0,-0.8991904 0.35788,-1.4256256 0.36029,-0.5297048 0.96966,-0.5297048 0.54649,0 0.86326,0.4773884 0.3192,0.4741186 0.3192,1.2915648 z M 138.1879,5.6903216 q -0.005,-0.4937372 -0.20554,-0.7880178 -0.19828,-0.2942805 -0.52715,-0.2942805 -0.37238,0 -0.59727,0.2844712 -0.22247,0.2844712 -0.25632,0.8010968 z"
       id="path37691"
       style="font-size:5.75874px;line-height:1.25;stroke-width:0.143968" />
    <path
       d="m 139.64361,7.0178537 h 0.49087 v 0.8305249 h -0.49087 z m 0,-4.0512616 h 0.49087 v 2.1417081 l -0.0483,1.1673126 h -0.39173 l -0.0507,-1.1673126 z"
       id="path37693"
       style="font-size:5.75874px;line-height:1.25;stroke-width:0.143968" />
    <path
       d="m 141.76912,2.9665921 v 1.8147297 h -0.41108 V 2.9665921 Z m 0.91404,0 v 1.8147297 h -0.41107 V 2.9665921 Z"
       id="path37695"
       style="font-size:5.75874px;line-height:1.25;stroke-width:0.143968" />
    <ellipse
       style="fill:#ff0000;fill-opacity:1;stroke:#f4fbf3;stroke-width:0;stroke-linecap:round;stroke-opacity:1"
       id="path36820"
       cx="9.036396"
       cy="12.245246"
       rx="8.9244642"
       ry="6.4870739" />
    <ellipse
       style="fill:#0000ff;fill-opacity:1;stroke:#f4fbf3;stroke-width:0;stroke-linecap:round;stroke-opacity:1"
       id="path36820-6"
       cx="244.07677"
       cy="10.311287"
       rx="8.9244642"
       ry="6.4870739" />
  </g>
</svg>
